<svg xmlns="http://www.w3.org/2000/svg" width="95" height="92"><path data-name="Forma 1" d="M89.252 38.2h-18.82a1.736 1.736 0 000 3.471h15.717l5.006 46.859H3.916l5.876-46.859h15.745a1.736 1.736 0 000-3.471H6.746L0 92h95zM46.025 65.89c-.254.151-.525.285-.768.443-.38.246-.751.5-1.116.772a1.743 1.743 0 00-.371 2.426 1.726 1.726 0 002.416.373c.307-.227.62-.446.946-.658a18.964 18.964 0 011.751-1.008 1.727 1.727 0 00.8-2.2c.014-.014.031-.024.043-.038 3.124-3.325 13.65-15.786 18.008-36.546a35.845 35.845 0 00.591-12.008C66.837 6.032 59.783 0 47.924 0s-18.91 6.033-20.4 17.444a35.888 35.888 0 00.592 12.008c4.317 20.558 14.678 32.97 17.909 36.438zM30.95 17.9c1.266-9.7 6.819-14.424 16.976-14.424S63.636 8.191 64.9 17.9a32.466 32.466 0 01-.546 10.842 76.5 76.5 0 01-16.428 34.1A76.517 76.517 0 0131.5 28.738a32.464 32.464 0 01-.55-10.838zm16.976 14.941a12.749 12.749 0 10-12.685-12.749 12.73 12.73 0 0012.685 12.749zm0-22.025a9.278 9.278 0 11-9.231 9.278 9.266 9.266 0 019.231-9.279zm6.342 51.954a1.735 1.735 0 10.722 3.395c1.012-.215 2.108-.4 3.257-.543a1.73 1.73 0 001.5-1.935 1.713 1.713 0 00-1.925-1.508 40.887 40.887 0 00-3.554.59zm8.929.7a1.73 1.73 0 001.723 1.661h.076l3.455-.144a1.731 1.731 0 001.649-1.81 1.774 1.774 0 00-1.8-1.656l-3.447.144a1.729 1.729 0 00-1.653 1.809zm-24.461 7.989c-.887.673-1.8 1.321-2.728 1.921a1.742 1.742 0 00-.508 2.4 1.724 1.724 0 002.39.51 51.227 51.227 0 002.927-2.062 1.745 1.745 0 00.338-2.431 1.727 1.727 0 00-2.419-.338zM77.22 60.015a6.135 6.135 0 01-2.324.913 1.736 1.736 0 10.7 3.4 9.472 9.472 0 003.619-1.48l.231-.17a1.743 1.743 0 00.335-2.431 1.724 1.724 0 00-2.419-.337zM15.3 73.585a1.727 1.727 0 10-3.333-.906 11.657 11.657 0 00-.388 2.438c-.009.2-.014.4-.014.613 0 .34.017.68.05 1.019a1.73 1.73 0 001.716 1.558c.057 0 .116 0 .178-.009a1.737 1.737 0 001.544-1.9 7.11 7.11 0 01-.023-1.107 8.118 8.118 0 01.27-1.706zm61.884-27.06a10.1 10.1 0 00-4.12.314 1.736 1.736 0 00.468 3.405 1.679 1.679 0 00.468-.066 6.706 6.706 0 012.72-.212 1.736 1.736 0 00.462-3.441zm3.436 8.6a1.736 1.736 0 001.14 2.169 1.683 1.683 0 00.509.078 1.724 1.724 0 001.649-1.224 7.431 7.431 0 00.316-1.671c.009-.144.014-.29.014-.434a6.956 6.956 0 00-.44-2.416 1.728 1.728 0 10-3.238 1.206 3.494 3.494 0 01.224 1.208l-.005.2a3.933 3.933 0 01-.171.882zM30.185 76.643c-1.012.477-2.043.92-3.063 1.317a1.737 1.737 0 00.623 3.355 1.7 1.7 0 00.622-.116c1.1-.425 2.2-.9 3.286-1.411a1.738 1.738 0 00.829-2.308 1.718 1.718 0 00-2.297-.837zm-12.571-7.225a1.72 1.72 0 00.825-.212 4.207 4.207 0 011.573-.5 2.783 2.783 0 01.7 0 1.712 1.712 0 001.937-1.493 1.733 1.733 0 00-1.485-1.947 6.343 6.343 0 00-1.539-.014 7.648 7.648 0 00-2.842.9 1.737 1.737 0 00.831 3.266zm-.359 13.608a8.538 8.538 0 001.129.215 10.974 10.974 0 001.328.082 12.751 12.751 0 001.623-.108 1.735 1.735 0 00-.432-3.443 8.418 8.418 0 01-2.1.026 5.746 5.746 0 01-.68-.13 1.721 1.721 0 00-2.107 1.243 1.739 1.739 0 001.239 2.115z" fill-rule="evenodd"/></svg>