<svg xmlns="http://www.w3.org/2000/svg" width="403.25" height="512"><path d="M307.653 393.488a56.12 56.12 0 01-74.281 24.136L201.5 402.02l-31.874 15.6a56.1 56.1 0 01-74.289-24.144l-4.069-7.676v107.54a18.714 18.714 0 0027.088 16.76l83.15-41.589 83.133 41.589a18.721 18.721 0 0027.09-16.755V385.8zm90.327-213.582l-37.413-38.7 7.54-53.3a18.731 18.731 0 00-15.3-21.078l-52.99-9.3-25.231-47.571a18.7 18.7 0 00-24.757-8.049l-48.324 23.64L153.17 1.906a18.7 18.7 0 00-24.757 8.052L103.2 57.532l-53 9.297a18.731 18.731 0 00-15.3 21.077l7.534 53.3-37.414 38.7a18.743 18.743 0 000 26.053l37.413 38.692-7.533 53.338a18.732 18.732 0 0015.306 21.076l41.062 7.2 11.932 2.093 6.787 12.8 18.428 34.757c.091.175.2.338.292.51a18.683 18.683 0 0024.466 7.54l48.33-23.656 48.319 23.656a18.683 18.683 0 0024.466-7.535c.1-.171.2-.335.293-.511l18.426-34.74 6.8-12.824 11.919-2.091 41.073-7.2a18.731 18.731 0 0015.3-21.077l-7.54-53.336 37.412-38.691a18.745 18.745 0 00.009-26.054zm-196.474 106.7A93.673 93.673 0 11295.1 192.93a93.749 93.749 0 01-93.594 93.681zm0-149.879a56.206 56.206 0 1056.153 56.2 56.244 56.244 0 00-56.153-56.195z" fill-rule="evenodd"/></svg>