<svg xmlns="http://www.w3.org/2000/svg" width="123" height="125"><path data-name="Forma 1" d="M47.16 80.475l-1.917 11.391a4.152 4.152 0 006.017 4.377L61.5 90.9l10.238 5.346a4.154 4.154 0 006.02-4.377l-1.916-11.394 8.244-8.089a4.157 4.157 0 00-2.3-7.081L70.364 63.61l-5.145-10.344a4.156 4.156 0 00-7.443 0l-5.14 10.344-11.423 1.69a4.157 4.157 0 00-2.3 7.081zm63.431-67.185h-13.08V6.033A6.029 6.029 0 0091.483 0h-.956A6.029 6.029 0 0084.5 6.033v7.257H38.349V6.033A6.03 6.03 0 0032.322 0h-.958a6.029 6.029 0 00-6.028 6.031v7.259H12.409A12.424 12.424 0 000 25.7v86.885A12.426 12.426 0 0012.409 125h98.182A12.426 12.426 0 00123 112.587V25.7a12.424 12.424 0 00-12.409-12.41zm-1.619 97.677H14.028V43.333h94.944v67.634z" fill-rule="evenodd"/></svg>