<svg xmlns="http://www.w3.org/2000/svg" width="512" height="478"><path d="M486.4 34.143h-.825a42.709 42.709 0 00-83.682 0h-10.184a42.709 42.709 0 00-83.682 0h-10.184a42.709 42.709 0 00-83.682 0h-10.184a42.709 42.709 0 00-83.682 0h-10.184A42.179 42.179 0 0068.27 0a42.179 42.179 0 00-41.841 34.143H25.6A25.146 25.146 0 000 59.75v392.643A25.146 25.146 0 0025.6 478h460.8a25.146 25.146 0 0025.6-25.607V59.75a25.146 25.146 0 00-25.6-25.607zm-42.667-17.072a25.062 25.062 0 0124.224 17.072h-48.448a25.064 25.064 0 0124.224-17.072zm-93.866 0a25.062 25.062 0 0124.224 17.072h-48.448a25.062 25.062 0 0124.224-17.072zm-93.867 0a25.062 25.062 0 0124.224 17.072h-48.448A25.063 25.063 0 01256 17.071zm-93.867 0a25.062 25.062 0 0124.224 17.072h-48.448a25.064 25.064 0 0124.224-17.072zm-93.866 0a25.062 25.062 0 0124.224 17.072H44.043a25.062 25.062 0 0124.224-17.072zm-51.2 42.679c0-5.121 3.413-8.535 8.533-8.535h66.891a25.063 25.063 0 01-24.224 17.07c-5.12 0-8.533 3.414-8.533 8.535s3.413 8.535 8.533 8.535a42.179 42.179 0 0041.841-34.143h76.25a25.064 25.064 0 01-24.224 17.072c-5.12 0-8.533 3.414-8.533 8.535s3.413 8.535 8.533 8.535a42.179 42.179 0 0041.841-34.143h76.25A25.064 25.064 0 01256 68.285c-5.12 0-8.533 3.414-8.533 8.535s3.413 8.536 8.533 8.536a42.179 42.179 0 0041.841-34.142h76.25a25.064 25.064 0 01-24.224 17.072c-5.12 0-8.533 3.414-8.533 8.535s3.413 8.535 8.533 8.535a42.179 42.179 0 0041.841-34.142h76.25a25.064 25.064 0 01-24.224 17.072c-5.12 0-8.533 3.414-8.533 8.535s3.413 8.535 8.533 8.535a42.179 42.179 0 0041.841-34.142h.825c5.12 0 8.533 3.414 8.533 8.535V119.5H17.067V59.75zm477.866 392.642c0 5.121-3.413 8.535-8.533 8.535H25.6c-5.12 0-8.533-3.414-8.533-8.535V136.571h477.867v315.821zM76.8 239H128c5.12 0 8.533-3.413 8.533-8.535V179.25c0-5.122-3.413-8.535-8.533-8.535H76.8c-5.12 0-8.533 3.413-8.533 8.535v51.214c0 5.122 3.413 8.536 8.533 8.536zm8.533-51.214h34.133v34.143H85.333v-34.144zM179.2 239h51.2c5.12 0 8.533-3.413 8.533-8.535V179.25c0-5.122-3.413-8.535-8.533-8.535h-51.2c-5.12 0-8.533 3.413-8.533 8.535v51.214c0 5.122 3.413 8.536 8.533 8.536zm8.533-51.214h34.133v34.143h-34.133v-34.144zM281.6 239h51.2c5.12 0 8.533-3.413 8.533-8.535V179.25c0-5.122-3.413-8.535-8.533-8.535h-51.2c-5.12 0-8.533 3.413-8.533 8.535v51.214c0 5.122 3.413 8.536 8.533 8.536zm8.533-51.214h34.133v34.143h-34.133v-34.144zM384 239h51.2c5.12 0 8.533-3.413 8.533-8.535V179.25c0-5.122-3.413-8.535-8.533-8.535H384c-5.12 0-8.533 3.413-8.533 8.535v51.214c0 5.122 3.413 8.536 8.533 8.536zm8.533-51.214h34.133v34.143h-34.133v-34.144zM76.8 332.892H128c5.12 0 8.533-3.413 8.533-8.535v-51.214c0-5.121-3.413-8.535-8.533-8.535H76.8c-5.12 0-8.533 3.414-8.533 8.535v51.214c0 5.121 3.413 8.535 8.533 8.535zm8.533-51.214h34.133v34.143H85.333v-34.143zm93.867 51.214h51.2c5.12 0 8.533-3.413 8.533-8.535v-51.214c0-5.121-3.413-8.535-8.533-8.535h-51.2c-5.12 0-8.533 3.414-8.533 8.535v51.214c0 5.121 3.413 8.535 8.533 8.535zm8.533-51.214h34.133v34.143h-34.133v-34.143zM76.8 426.785H128c5.12 0 8.533-3.414 8.533-8.536v-51.214c0-5.121-3.413-8.535-8.533-8.535H76.8c-5.12 0-8.533 3.414-8.533 8.535v51.214c0 5.122 3.413 8.536 8.533 8.536zm8.533-51.215h34.133v34.143H85.333V375.57zm93.867 51.215h51.2c5.12 0 8.533-3.414 8.533-8.536v-51.214c0-5.121-3.413-8.535-8.533-8.535h-51.2c-5.12 0-8.533 3.414-8.533 8.535v51.214c0 5.122 3.413 8.536 8.533 8.536zm8.533-51.215h34.133v34.143h-34.133V375.57zM358.4 443.856a93.893 93.893 0 10-93.867-93.893 93.609 93.609 0 0093.867 93.893zm0-170.714a76.822 76.822 0 11-76.8 76.821 76.49 76.49 0 0176.8-76.821zm-14.507 125.475a7.745 7.745 0 005.973 2.56c3.413 0 5.973-1.707 6.827-4.268l51.2-76.821c2.56-4.268 1.707-9.39-2.56-11.95s-9.387-1.708-11.947 2.56l-45.227 68.286-26.453-26.46a8.449 8.449 0 00-11.947 11.95z" fill-rule="evenodd"/></svg>