<svg xmlns="http://www.w3.org/2000/svg" width="512" height="452"><path d="M505.317 184.211l-74.261-81.872c-5.975-5.969-13.657-9.381-21.339-9.381h-78.53a23.847 23.847 0 00-23.9 23.879V298.49H265.95l31.7-221.737h77.919c5.121 0 8.535-3.411 8.535-8.528s-3.414-8.528-8.535-8.528h-81.512l-40.545-48.611c-.853-.853-3.414-2.559-5.121-2.559L188.641 0a9.7 9.7 0 00-6.829 2.558L157.058 27.29l-22.193 14.5-47.8-7.675c-4.268-.852-8.535 1.706-9.39 5.117L53.988 102.34H42.68a9.389 9.389 0 00-8.535 5.117L0 192.74v5.117l25.608 110.868v71.638a20.763 20.763 0 0020.486 20.468h5.725a59.77 59.77 0 00118.3 0H350.57a59.77 59.77 0 00118.3 0h22.8c11.1 0 20.486-9.382 21.339-20.468V203.826c-.009-7.675-2.571-14.498-7.692-19.615zm-10.243 19.615v26.438H367.037v-85.283h77.675l46.947 51.17a6.418 6.418 0 011.613 1.559 7.831 7.831 0 01.592.945 11.28 11.28 0 011.21 5.171zM90.479 52.023l44.386 7.677c2.56 0 4.268 0 6.829-2.559L167.3 40.083a2.983 2.983 0 001.707-.853L191.2 17.056l52.067 7.676L272.291 59.7H239a10.186 10.186 0 00-1.272.08h-.013a9.692 9.692 0 00-1.165.222c-.073.018-.145.04-.218.06-.249.07-.493.151-.733.241a9.086 9.086 0 00-5.134 4.512l-12.8 32.408q-2.56 5.116-7.682 5.117H71.7zM24.9 230.234c.234.015.468.03.71.03h128.034c5.121 0 8.535-3.411 8.535-8.528s-3.414-8.528-8.535-8.528H25.608a9.239 9.239 0 00-4.467 1.072L17.072 197l3.818-9.381h90.076c5.121 0 8.535-3.411 8.535-8.528s-3.414-8.528-8.535-8.528H27.83L48.654 119.4h162.179c10.243 0 19.633-5.969 23.047-15.351l11.1-27.291h35l-31.589 221.733H40.972zm86.068 204.71a42.642 42.642 0 1142.676-42.644 42.246 42.246 0 01-42.679 42.644zm298.752 0A42.642 42.642 0 11452.4 392.3a42.247 42.247 0 01-42.683 42.644zm81.943-51.17h-22.8a59.3 59.3 0 00-59.147-51.17c-.138 0-.275.009-.413.01s-.294-.01-.441-.01a59.705 59.705 0 00-58.9 51.17H170.113a59.231 59.231 0 00-53.544-50.906c-.2-.019-.409-.029-.613-.046-.7-.056-1.4-.114-2.1-.147-.958-.046-1.92-.072-2.888-.072s-1.931.026-2.888.072c-.706.033-1.4.09-2.1.147-.2.017-.41.027-.613.046a59.231 59.231 0 00-53.543 50.906h-5.731a3.67 3.67 0 01-3.414-3.411v-64.815h281.68V117.69a6.73 6.73 0 016.829-6.823h78.529a10.964 10.964 0 018.535 3.411l12.234 13.645h-66.009a14.952 14.952 0 00-14.511 14.5v90.4a14.952 14.952 0 0014.511 14.5h130.6v42.642H452.4c-5.122 0-8.536 3.411-8.536 8.528s3.414 8.528 8.536 8.528h42.679v73.344a3.67 3.67 0 01-3.419 3.409zm-380.7-8.528a17.057 17.057 0 1017.074 17.054 17.114 17.114 0 00-17.072-17.054zm298.752 0a17.057 17.057 0 1017.073 17.054 17.114 17.114 0 00-17.071-17.054z" fill-rule="evenodd"/></svg>