<svg xmlns="http://www.w3.org/2000/svg" width="56.625" height="55.75"><path data-name="Forma 1" d="M55.346 44.683l-8.742-8.744a4.56 4.56 0 00-6.427.121l-4.4 4.4-.869-.484a43.825 43.825 0 01-10.596-7.658 44.055 44.055 0 01-7.677-10.612c-.164-.3-.32-.579-.474-.849l2.951-2.952 1.456-1.455a4.553 4.553 0 00.117-6.427l-8.742-8.744a4.554 4.554 0 00-6.431.121l-2.46 2.478.068.067a14.23 14.23 0 00-2.03 3.581 14.846 14.846 0 00-.9 3.632c-1.154 9.57 3.219 18.316 15.087 30.185C31.678 57.75 44.899 56.508 45.47 56.45a14.778 14.778 0 003.643-.915 14.2 14.2 0 003.568-2.022l.054.048 2.5-2.444a4.561 4.561 0 00.111-6.434z" fill-rule="evenodd"/></svg>