<svg xmlns="http://www.w3.org/2000/svg" width="512" height="304" viewBox="0 0 512 304">
  <defs>
    <style>
      .cls-1 {
        fill-rule: evenodd;
      }
    </style>
  </defs>
  <path class="cls-1" d="M506.921,145.34L477.38,128.208,460.5,56.19A42.039,42.039,0,0,0,419.4,23.635H334.505V10.185A10.193,10.193,0,0,0,324.306,0H10.2A10.193,10.193,0,0,0,0,10.185v242.8a10.193,10.193,0,0,0,10.2,10.186H42.978a51.094,51.094,0,0,0,100.1,0H349.556a51.094,51.094,0,0,0,100.1,0H501.8A10.193,10.193,0,0,0,512,252.99V154.149A10.186,10.186,0,0,0,506.921,145.34ZM93.029,283.63a30.64,30.64,0,1,1,30.678-30.639A30.694,30.694,0,0,1,93.029,283.63Zm221.079-77.354H222.115a10.186,10.186,0,1,0,0,20.372h91.993V242.8H143.081a51.094,51.094,0,0,0-100.1,0H20.4V190.12h293.71v16.156h0Zm0-172.454V169.748H20.4V20.372h293.71v13.45ZM393.67,44.009H419.4a21.722,21.722,0,0,1,21.244,16.825l14.949,63.791h-61.92V44.009h0Zm5.937,239.621a30.7,30.7,0,0,1-30.6-28.6,10.258,10.258,0,0,0,0-4.081A30.673,30.673,0,1,1,399.607,283.63ZM491.6,194.459H472.2V183.675h19.4v10.784Zm0-31.156H462a10.193,10.193,0,0,0-10.2,10.186v31.156A10.193,10.193,0,0,0,462,214.831h29.6V242.8H449.659a51.094,51.094,0,0,0-100.1,0h-15.05V44.008h38.766v90.8A10.193,10.193,0,0,0,383.471,145h82.235L491.6,160.015V163.3h0ZM187.693,206.276h-8.606a10.186,10.186,0,1,0,0,20.372h8.606A10.186,10.186,0,1,0,187.693,206.276Z"/>
</svg>
