<svg xmlns="http://www.w3.org/2000/svg" width="549" height="474" viewBox="0 0 549 474">
  <defs>
    <style>
      .cls-1 {
        fill-rule: evenodd;
      }
    </style>
  </defs>
  <path id="Forma_1" data-name="Forma 1" class="cls-1" d="M0.473,456.919a3.59,3.59,0,0,0,.474,1.9c0,0.474.474,1.423,0.474,1.9a10.758,10.758,0,0,1,.474,1.9,6.941,6.941,0,0,1,.948,1.9c0.474,0.475.474,0.949,0.948,1.424a2.513,2.513,0,0,1,.948,1.423l1.422,1.424,0.474,0.474a0.465,0.465,0,0,1,.474.475,11.3,11.3,0,0,0,5.215,2.846,0.946,0.946,0,0,1,.948.475,23.8,23.8,0,0,0,5.689.949H530.511a23.8,23.8,0,0,0,5.689-.949,0.946,0.946,0,0,0,.948-0.475,51.408,51.408,0,0,0,5.215-2.846,0.465,0.465,0,0,0,.474-0.475l0.475-.474,1.422-1.424a2.514,2.514,0,0,0,.948-1.423c0.474-.475.474-0.949,0.948-1.424a6.957,6.957,0,0,0,.948-1.9,2.292,2.292,0,0,0,.474-1.9c0-.475.474-1.424,0.474-1.9a10.767,10.767,0,0,0,.475-1.9V19.454A19.234,19.234,0,0,0,529.563,0H19.437A19.233,19.233,0,0,0,0,19.454V455.021A2.291,2.291,0,0,1,.473,456.919Zm60.684-22.3L204.808,262.859l59.736,41.754a19.561,19.561,0,0,0,21.808,0l59.736-41.754L489.739,434.618H61.157Zm450.864-34.162-134.168-159.9,133.694-93.472V400.456h0.474ZM38.875,38.907H511.547v61.207l-236.1,164.643L38.875,100.114V38.907Zm0,108.18,133.7,93.472-133.7,159.9V147.087Z"/>
</svg>
