<svg xmlns="http://www.w3.org/2000/svg" width="549" height="549" viewBox="0 0 549 549">
  <defs>
    <style>
      .cls-1 {
        fill-rule: evenodd;
      }
    </style>
  </defs>
  <path id="Forma_1" data-name="Forma 1" class="cls-1" d="M274.5,549C426.21,549,549,425.736,549,274.5,549,122.79,425.736,0,274.5,0S0,122.79,0,274.5C0,425.736,122.79,549,274.5,549Zm0-510.6c130.376,0,236.1,105.723,236.1,236.1S404.876,510.6,274.5,510.6,38.4,404.4,38.4,274.5C38.4,144.124,144.124,38.4,274.5,38.4ZM261.7,306.738h91.5a19.438,19.438,0,0,0,0-38.875H281.137V155.028a19.438,19.438,0,1,0-38.876,0V287.3A19.225,19.225,0,0,0,261.7,306.738Z"/>
</svg>
