<svg xmlns="http://www.w3.org/2000/svg" width="95" height="92" viewBox="0 0 95 92">
  <defs>
    <style>
      .cls-1 {
        fill: #ffffff;
        fill-rule: evenodd;
      }
    </style>
  </defs>
  <path id="Forma_1" data-name="Forma 1" class="cls-1" d="M89.252,38.2H70.432a1.736,1.736,0,0,0,0,3.471H86.149l5.006,46.859H3.916L9.792,41.671H25.537a1.736,1.736,0,0,0,0-3.471H6.746L0,92H95ZM46.025,65.89c-0.254.151-.525,0.285-0.768,0.443-0.38.246-.751,0.5-1.116,0.772a1.743,1.743,0,0,0-.371,2.426,1.726,1.726,0,0,0,2.416.373c0.307-.227.62-0.446,0.946-0.658a18.964,18.964,0,0,1,1.751-1.008,1.727,1.727,0,0,0,.8-2.2c0.014-.014.031-0.024,0.043-0.038,3.124-3.325,13.65-15.786,18.008-36.546a35.845,35.845,0,0,0,.591-12.008C66.837,6.032,59.783,0,47.924,0s-18.91,6.033-20.4,17.444a35.888,35.888,0,0,0,.592,12.008C32.433,50.01,42.794,62.422,46.025,65.89ZM30.95,17.9c1.266-9.7,6.819-14.424,16.976-14.424S63.636,8.191,64.9,17.9a32.466,32.466,0,0,1-.546,10.842,76.5,76.5,0,0,1-16.428,34.1A76.517,76.517,0,0,1,31.5,28.738,32.464,32.464,0,0,1,30.95,17.9ZM47.926,32.841A12.749,12.749,0,1,0,35.241,20.092,12.73,12.73,0,0,0,47.926,32.841Zm0-22.025a9.278,9.278,0,1,1-9.231,9.278A9.266,9.266,0,0,1,47.926,10.815Zm6.342,51.954a1.735,1.735,0,1,0,.722,3.395c1.012-.215,2.108-0.4,3.257-0.543a1.73,1.73,0,0,0,1.5-1.935,1.713,1.713,0,0,0-1.925-1.508C56.573,62.332,55.377,62.532,54.268,62.769Zm8.929,0.7a1.73,1.73,0,0,0,1.723,1.661c0.026,0,.05,0,0.076,0l3.455-.144A1.731,1.731,0,0,0,70.1,63.177a1.774,1.774,0,0,0-1.8-1.656l-3.447.144A1.729,1.729,0,0,0,63.2,63.474ZM38.736,71.459c-0.887.673-1.8,1.321-2.728,1.921a1.742,1.742,0,0,0-.508,2.4,1.724,1.724,0,0,0,2.39.51c0.989-.646,1.975-1.34,2.927-2.062a1.745,1.745,0,0,0,.338-2.431A1.727,1.727,0,0,0,38.736,71.459ZM77.22,60.015a6.135,6.135,0,0,1-2.324.913,1.736,1.736,0,1,0,.7,3.4,9.472,9.472,0,0,0,3.619-1.48l0.231-.17a1.743,1.743,0,0,0,.335-2.431,1.724,1.724,0,0,0-2.419-.337ZM15.3,73.585a1.727,1.727,0,1,0-3.333-.906,11.657,11.657,0,0,0-.388,2.438c-0.009.2-.014,0.4-0.014,0.613,0,0.34.017,0.68,0.05,1.019a1.73,1.73,0,0,0,1.716,1.558c0.057,0,.116,0,0.178-0.009a1.737,1.737,0,0,0,1.544-1.9c-0.024-.227-0.033-0.458-0.035-0.677,0-.144.005-0.288,0.012-0.43A8.118,8.118,0,0,1,15.3,73.585Zm61.884-27.06a10.1,10.1,0,0,0-4.12.314,1.736,1.736,0,0,0,.468,3.405A1.679,1.679,0,0,0,74,50.178a6.706,6.706,0,0,1,2.72-.212A1.736,1.736,0,0,0,77.182,46.525Zm3.436,8.6a1.736,1.736,0,0,0,1.14,2.169,1.683,1.683,0,0,0,.509.078,1.724,1.724,0,0,0,1.649-1.224,7.431,7.431,0,0,0,.316-1.671c0.009-.144.014-0.29,0.014-0.434a6.956,6.956,0,0,0-.44-2.416,1.728,1.728,0,1,0-3.238,1.206,3.494,3.494,0,0,1,.224,1.208l-0.005.2A3.933,3.933,0,0,1,80.618,55.123ZM30.185,76.643c-1.012.477-2.043,0.92-3.063,1.317a1.737,1.737,0,0,0,.623,3.355,1.7,1.7,0,0,0,.622-0.116c1.1-.425,2.2-0.9,3.286-1.411a1.738,1.738,0,0,0,.829-2.308A1.718,1.718,0,0,0,30.185,76.643ZM17.614,69.418a1.72,1.72,0,0,0,.825-0.212,4.207,4.207,0,0,1,1.573-.5,2.783,2.783,0,0,1,.7,0,1.712,1.712,0,0,0,1.937-1.493,1.733,1.733,0,0,0-1.485-1.947,6.343,6.343,0,0,0-1.539-.014,7.648,7.648,0,0,0-2.842.9A1.737,1.737,0,0,0,17.614,69.418ZM17.255,83.026a8.538,8.538,0,0,0,1.129.215,10.974,10.974,0,0,0,1.328.082,12.751,12.751,0,0,0,1.623-.108,1.735,1.735,0,0,0-.432-3.443,8.418,8.418,0,0,1-2.1.026,5.746,5.746,0,0,1-.68-0.13,1.721,1.721,0,0,0-2.107,1.243A1.739,1.739,0,0,0,17.255,83.026Z"/>
</svg>
