<svg xmlns="http://www.w3.org/2000/svg" width="730.875" height="799.5" viewBox="0 0 730.875 799.5">
  <defs>
    <style>
      .cls-1 {
        fill-rule: evenodd;
      }
    </style>
  </defs>
  <path class="cls-1" d="M149.13,159.02C267.289,52.244,444.12,50.611,563.913,148.081l-94.952,3.592a22.048,22.048,0,0,0,.817,44.081H470.6l145.778-5.387a22.007,22.007,0,0,0,21.246-22.041v-2.612h0l-5.393-144A22.078,22.078,0,0,0,588.1,23.346l3.431,90.286c-59.324-48.49-132.377-76.572-210.5-80.49A362.642,362.642,0,0,0,10.379,480.816a21.961,21.961,0,0,0,21.409,16.816,19.169,19.169,0,0,0,5.23-.652A22.071,22.071,0,0,0,53.2,470.367,318.344,318.344,0,0,1,149.13,159.02ZM721.622,319.673A22.038,22.038,0,0,0,678.8,330.122a318.807,318.807,0,0,1-513.33,320.164l96.1-8.653a22.054,22.054,0,1,0-4.085-43.919L112.2,610.776a22.022,22.022,0,0,0-19.938,24l13.074,145.143A22.016,22.016,0,0,0,127.231,800a7.976,7.976,0,0,0,1.961-.163,22.022,22.022,0,0,0,19.938-24l-7.844-88.327c59.324,48,132.05,75.919,209.679,79.837,6.211,0.327,12.42.49,18.468,0.49,90.049,0,175.685-32.98,243.019-93.715A362.3,362.3,0,0,0,721.622,319.673Z" transform="translate(-0.125 -0.5)"/>
</svg>
