<svg xmlns="http://www.w3.org/2000/svg" width="460" height="512" viewBox="0 0 460 512">
  <defs>
    <style>
      .cls-1 {
        fill-rule: evenodd;
      }
    </style>
  </defs>
  <path class="cls-1" d="M378.8,395.844c-13.617-5.956-29.069-12.689-46.646-20.736l-0.795-.358-0.623.606a164.217,164.217,0,0,1-19.379,16.06l-1.793,1.263,1.989,0.93c22.076,10.257,41.2,18.662,57.378,25.737,60.023,26.18,67.605,31.292,67.605,45.559,0,9.8-9.664,21.641-21.651,21.641H48.108c-11.986,0-21.65-11.844-21.65-21.641,0-14.268,7.589-19.379,67.605-45.559,16.178-7.074,35.309-15.479,57.378-25.737l1.988-.93-1.792-1.263a165.74,165.74,0,0,1-19.38-16.06l-0.623-.606-0.794.358c-17.587,8.038-33.031,14.78-46.646,20.736C23.649,422.263,1,432.154,1,464.913,1,489.557,23.453,512,48.108,512H414.892C439.547,512,462,489.557,462,464.913,462,432.154,439.351,422.263,378.8,395.844ZM410.778,153.6H385.167a153.667,153.667,0,0,0-307.333,0H52.223a25.6,25.6,0,0,0-25.611,25.6V256a25.6,25.6,0,0,0,25.611,25.6H77.834a25.33,25.33,0,0,0,18.875-8.627,40.167,40.167,0,0,0,2.39,3.285c17.732,70.153,70.371,121.174,132.4,121.174,63.533,0,117.1-53.572,133.519-126.353,4.67,6.229,11.764,10.522,20.148,10.522h25.611A25.6,25.6,0,0,0,436.389,256V179.2A25.6,25.6,0,0,0,410.778,153.6ZM77.834,256H52.223V179.2H77.834V256ZM231.5,371.985c-41.43,0-77.644-29.21-97.416-72.559C164.433,312.627,204.215,320,231.5,320a12.8,12.8,0,1,0,0-25.6c-45.024,0-93.036-17.988-109.154-30.822a189.1,189.1,0,0,1-4.192-39.262c0-81.425,50.855-147.669,113.346-147.669s113.346,66.244,113.346,147.669S293.991,371.985,231.5,371.985Zm127.748-215.33C338.076,94.729,288.792,51.2,231.5,51.2S124.924,94.729,103.752,156.655c-0.026-1.041-.307-2.014-0.307-3.055,0-70.579,57.446-128,128.055-128s128.055,57.421,128.055,128C359.555,154.641,359.273,155.614,359.248,156.655ZM410.778,256H385.167V179.2h25.611V256Z" transform="translate(-1)"/>
</svg>
