<svg xmlns="http://www.w3.org/2000/svg" width="123" height="125" viewBox="0 0 123 125">
  <defs>
    <style>
      .cls-1 {
        fill-rule: evenodd;
      }
    </style>
  </defs>
  <path id="Forma_1" data-name="Forma 1" class="cls-1" d="M47.16,80.475L45.243,91.866a4.152,4.152,0,0,0,6.017,4.377L61.5,90.9l10.238,5.346a4.154,4.154,0,0,0,6.02-4.377L75.842,80.475l8.244-8.089a4.157,4.157,0,0,0-2.3-7.081L70.364,63.61,65.219,53.266a4.156,4.156,0,0,0-7.443,0L52.636,63.61,41.213,65.3a4.157,4.157,0,0,0-2.3,7.081ZM110.591,13.29H97.511V6.033A6.029,6.029,0,0,0,91.483,0H90.527A6.029,6.029,0,0,0,84.5,6.033V13.29H38.349V6.033A6.03,6.03,0,0,0,32.322,0H31.364a6.029,6.029,0,0,0-6.028,6.031V13.29H12.409A12.424,12.424,0,0,0,0,25.7v86.885A12.426,12.426,0,0,0,12.409,125h98.182A12.426,12.426,0,0,0,123,112.587V25.7A12.424,12.424,0,0,0,110.591,13.29Zm-1.619,97.677H14.028V43.333h94.944v67.634Z"/>
</svg>
