<svg xmlns="http://www.w3.org/2000/svg" width="512" height="452" viewBox="0 0 512 452">
  <defs>
    <style>
      .cls-1 {
        fill-rule: evenodd;
      }
    </style>
  </defs>
  <path class="cls-1" d="M506.317,184.211l-74.261-81.872c-5.975-5.969-13.657-9.381-21.339-9.381h-78.53a23.847,23.847,0,0,0-23.9,23.879V298.49H266.95l31.7-221.737h77.919c5.121,0,8.535-3.411,8.535-8.528s-3.414-8.528-8.535-8.528H295.057L254.512,11.086c-0.853-.853-3.414-2.559-5.121-2.559L189.641,0a9.7,9.7,0,0,0-6.829,2.558L158.058,27.29l-22.193,14.5-47.8-7.675c-4.268-.852-8.535,1.706-9.39,5.117L54.988,102.34H43.68a9.389,9.389,0,0,0-8.535,5.117L1,192.74v5.117L26.608,308.725v71.638a20.763,20.763,0,0,0,20.486,20.468h5.725a59.77,59.77,0,0,0,118.3,0H351.57a59.77,59.77,0,0,0,118.3,0h22.8c11.1,0,20.486-9.382,21.339-20.468V203.826C514,196.151,511.438,189.328,506.317,184.211Zm-10.243,19.615v26.438H368.037V144.981h77.675l46.947,51.17a6.418,6.418,0,0,1,1.613,1.559,7.831,7.831,0,0,1,.592.945A11.28,11.28,0,0,1,496.074,203.826ZM91.479,52.023L135.865,59.7c2.56,0,4.268,0,6.829-2.559L168.3,40.083a2.983,2.983,0,0,0,1.707-.853L192.2,17.056l52.067,7.676L273.291,59.7H240a10.186,10.186,0,0,0-1.272.08l-0.013,0a9.692,9.692,0,0,0-1.165.222c-0.073.018-.145,0.04-0.218,0.06-0.249.07-.493,0.151-0.733,0.241a9.086,9.086,0,0,0-5.134,4.512l-12.8,32.408q-2.56,5.116-7.682,5.117H72.7ZM25.9,230.234c0.234,0.015.468,0.03,0.71,0.03H154.644c5.121,0,8.535-3.411,8.535-8.528s-3.414-8.528-8.535-8.528H26.608a9.239,9.239,0,0,0-4.467,1.072L18.072,197l3.818-9.381h90.076c5.121,0,8.535-3.411,8.535-8.528s-3.414-8.528-8.535-8.528H28.83L49.654,119.4H211.833c10.243,0,19.633-5.969,23.047-15.351l11.1-27.291h35L249.391,298.491H41.972Zm86.068,204.71A42.642,42.642,0,1,1,154.644,392.3,42.246,42.246,0,0,1,111.965,434.944Zm298.752,0A42.642,42.642,0,1,1,453.4,392.3,42.247,42.247,0,0,1,410.717,434.944Zm81.943-51.17h-22.8a59.3,59.3,0,0,0-59.147-51.17c-0.138,0-.275.009-0.413,0.01s-0.294-.01-0.441-0.01a59.705,59.705,0,0,0-58.9,51.17H171.113a59.231,59.231,0,0,0-53.544-50.906c-0.2-.019-0.409-0.029-0.613-0.046-0.7-.056-1.4-0.114-2.1-0.147-0.958-.046-1.92-0.072-2.888-0.072s-1.931.026-2.888,0.072c-0.706.033-1.4,0.09-2.1,0.147-0.2.017-.41,0.027-0.613,0.046a59.231,59.231,0,0,0-53.543,50.906H47.093a3.67,3.67,0,0,1-3.414-3.411V315.548H325.359V117.69a6.73,6.73,0,0,1,6.829-6.823h78.529a10.964,10.964,0,0,1,8.535,3.411l12.234,13.645H365.477a14.952,14.952,0,0,0-14.511,14.5v90.4a14.952,14.952,0,0,0,14.511,14.5h130.6v42.642H453.4c-5.122,0-8.536,3.411-8.536,8.528s3.414,8.528,8.536,8.528h42.679v73.344A3.67,3.67,0,0,1,492.66,383.774Zm-380.7-8.528A17.057,17.057,0,1,0,129.037,392.3,17.114,17.114,0,0,0,111.965,375.246Zm298.752,0A17.057,17.057,0,1,0,427.788,392.3,17.114,17.114,0,0,0,410.717,375.246Z" transform="translate(-1)"/>
</svg>
