<svg xmlns="http://www.w3.org/2000/svg" width="403.25" height="512" viewBox="0 0 403.25 512">
  <defs>
    <style>
      .cls-1 {
        fill-rule: evenodd;
      }
    </style>
  </defs>
  <path class="cls-1" d="M307.653,393.488a56.12,56.12,0,0,1-74.281,24.136L201.5,402.02l-31.874,15.6a56.1,56.1,0,0,1-74.289-24.144L91.268,385.8V493.34A18.714,18.714,0,0,0,118.356,510.1l83.15-41.589L284.639,510.1a18.721,18.721,0,0,0,27.09-16.755V385.8ZM397.98,179.906l-37.413-38.7,7.54-53.3a18.731,18.731,0,0,0-15.3-21.078l-52.99-9.3L274.586,9.957a18.7,18.7,0,0,0-24.757-8.049l-48.324,23.64L153.17,1.906a18.7,18.7,0,0,0-24.757,8.052L103.2,57.532,50.2,66.829A18.731,18.731,0,0,0,34.9,87.906l7.534,53.3-37.414,38.7a18.743,18.743,0,0,0,0,26.053l37.413,38.692L34.9,297.989a18.732,18.732,0,0,0,15.306,21.076l41.062,7.2,11.932,2.093,6.787,12.8,18.428,34.757c0.091,0.175.2,0.338,0.292,0.51a18.683,18.683,0,0,0,24.466,7.54l48.33-23.656,48.319,23.656a18.683,18.683,0,0,0,24.466-7.535c0.1-.171.2-0.335,0.293-0.511l18.426-34.74,6.8-12.824,11.919-2.091,41.073-7.2a18.731,18.731,0,0,0,15.3-21.077l-7.54-53.336,37.412-38.691A18.745,18.745,0,0,0,397.98,179.906Zm-196.474,106.7A93.673,93.673,0,1,1,295.1,192.93,93.749,93.749,0,0,1,201.506,286.611Zm0-149.879a56.206,56.206,0,1,0,56.153,56.2A56.244,56.244,0,0,0,201.506,136.732Z"/>
</svg>
