<svg xmlns="http://www.w3.org/2000/svg" width="486.688" height="512" viewBox="0 0 486.688 512">
  <defs>
    <style>
      .cls-1 {
        fill-rule: evenodd;
      }
    </style>
  </defs>
  <path class="cls-1" d="M244,245.243a50.262,50.262,0,1,0,18.843,96.86,7.884,7.884,0,1,0-5.915-14.616,34.51,34.51,0,1,1,18.516-17.8,7.885,7.885,0,0,0,14.369,6.5A50.258,50.258,0,0,0,244,245.243Zm70.744,170.691a33.636,33.636,0,1,0,33.641,33.636A33.676,33.676,0,0,0,314.743,415.934Zm0,51.5a17.869,17.869,0,1,1,17.872-17.869A17.89,17.89,0,0,1,314.743,467.438ZM485.388,195.766l-37.234-37.229a7.884,7.884,0,0,0-11.149,0l-30.175,30.17a23.685,23.685,0,0,0-21.859.657l-28.04-21.649a7.884,7.884,0,1,0-9.638,12.479L374.5,201.2a24.213,24.213,0,0,0-.652,16.017l-7.948,6.7L302.928,175.3V145.942l19.278,14.884a7.884,7.884,0,1,0,9.639-12.479l-28.916-22.326V109.388a7.883,7.883,0,0,0-7.884-7.883H285.036V92.93h31.707a7.883,7.883,0,0,0,7.393-10.624L295.506,5.142A7.883,7.883,0,0,0,288.113,0H199.884a7.883,7.883,0,0,0-7.357,5.049L184.2,26.663a7.885,7.885,0,0,0,14.715,5.67L205.3,15.767H282.63l22.78,61.394H181.63l5.125-13.295a7.884,7.884,0,0,0-14.714-5.67L162.784,82.21a7.883,7.883,0,0,0,7.357,10.718h32.822V101.5H192.954a7.883,7.883,0,0,0-7.884,7.883v16.633l-82.042,63.343a23.686,23.686,0,0,0-21.859-.657L51,158.536a7.884,7.884,0,0,0-11.15,0L2.611,195.765A7.881,7.881,0,0,0,.4,202.592L9.49,259.036a23.787,23.787,0,0,0,26.683,36.178l6.794,8.051a23.77,23.77,0,0,0,29.558,35.027l5.916,7.011A23.77,23.77,0,0,0,108.3,380.679l5.62,6.661a23.77,23.77,0,0,0,32.657,34.029V452.05a7.884,7.884,0,0,0,15.768,0V300.277c0-35.562,24.032-67.862,58.035-78.16A81.6,81.6,0,0,1,244,218.633a81.692,81.692,0,0,1,81.658,81.647v87.813a62.407,62.407,0,0,0-61,98.714A60.615,60.615,0,0,0,273.053,496c0.085,0.077.165,0.159,0.251,0.235H162.34V483.586a7.884,7.884,0,0,0-15.768,0v20.531A7.883,7.883,0,0,0,154.456,512H333.543a7.883,7.883,0,0,0,7.619-5.881,62.341,62.341,0,0,0,29.066-85.127,23.756,23.756,0,0,0,3.857-33.65l5.62-6.661a23.768,23.768,0,0,0,29.851-35.373l5.918-7.013a23.775,23.775,0,0,0,29.56-35.027l6.794-8.052a23.871,23.871,0,0,0,7.092,1.077,23.774,23.774,0,0,0,19.592-37.266L487.6,202.6A7.884,7.884,0,0,0,485.388,195.766ZM218.732,92.928h50.535V101.5H218.732V92.928Zm-17.9,86.248h0v-61.9h86.322V180.9H200.837v-1.719h0Zm-15.767-33.235V175.3L122.1,223.922l-7.932-6.692a23.847,23.847,0,0,0-.664-16.036ZM45.42,175.26l23.636,23.634L23.165,244.777l-6.555-40.71ZM34.753,278.175l-0.009.008a8.088,8.088,0,0,1-1.041.856c-0.067.048-.128,0.1-0.194,0.153a8.022,8.022,0,0,1-10.1-12.361l62.375-62.365a8.022,8.022,0,0,1,11.345,0l0.021,0.023c0.054,0.061.1,0.127,0.157,0.186a8.015,8.015,0,0,1,.687,10.081s0,0,0,0a8.065,8.065,0,0,1-.865,1.049Zm14.366,7.933,55.941-55.932,5.651,4.767L53.887,291.758Zm19.29,36.116-0.137.137a8.022,8.022,0,0,1-11.346-11.345l71.651-71.641a8.019,8.019,0,0,1,11.959,10.648s-0.01.01-.015,0.017c-0.071.089-.139,0.167-0.207,0.247-0.127.147-.254,0.294-0.393,0.433ZM138.1,407.941A8.022,8.022,0,0,1,126.756,396.6l19.815-19.812v22.687h0Zm8.47-53.453-21.557,21.555-4.769-5.65,26.326-26.322v10.417Zm0-54.211v21.5l-42.6,42.594-0.785.784A8.022,8.022,0,1,1,91.84,353.806l54.737-54.729C146.574,299.478,146.571,299.878,146.571,300.277Zm3.939-27.427L89.45,333.9l-4.768-5.65,30.939-30.934,31.587-31.583,4.376,3.691Q151.016,271.123,150.51,272.85ZM244,202.866a97.516,97.516,0,0,0-85.877,51.444l-1.486-1.254a23.706,23.706,0,0,0-5.564-24.828,24.013,24.013,0,0,0-4.338-3.409l40.157-31a7.867,7.867,0,0,0,6.062,2.844H295.045a7.868,7.868,0,0,0,6.063-2.844l40.157,31a23.643,23.643,0,0,0-9.89,28.227l-1.5,1.263A97.524,97.524,0,0,0,244,202.866ZM356.909,469.561a46.562,46.562,0,1,1,4.5-19.991A47.036,47.036,0,0,1,356.909,469.561Zm4.343-61.631a62.147,62.147,0,0,0-19.825-14.817V376.786L361.242,396.6A8.02,8.02,0,0,1,361.252,407.93Zm1.733-31.887-21.557-21.554V344.071l26.326,26.322Zm33.172-10.892a8.025,8.025,0,0,1-11.346,0l-43.384-43.378V300.279c0-.4,0-0.8-0.007-1.2l54.737,54.728A8.03,8.03,0,0,1,396.157,365.151Zm2.391-31.25-61.06-61.05q-0.507-1.726-1.074-3.427l4.376-3.691,62.526,62.518Zm32.523-11.54a8.024,8.024,0,0,1-11.345,0l-71.65-71.64c-0.151-.151-0.289-0.311-0.426-0.471-0.057-.067-0.111-0.13-0.171-0.205,0,0-.008-0.008-0.012-0.014a8.019,8.019,0,0,1,11.954-10.653l71.651,71.64A8.02,8.02,0,0,1,431.071,322.361Zm3.04-30.6-56.824-56.815,5.651-4.767,27.97,27.965,27.97,27.966Zm30.479-13.583a8.025,8.025,0,0,1-10.1,1.017c-0.066-.05-0.128-0.106-0.2-0.154a8.1,8.1,0,0,1-1.048-.863L390.87,215.81c-0.062-.062-0.114-0.128-0.173-0.191A8.637,8.637,0,0,1,390,214.76h0a8.022,8.022,0,0,1,.685-10.083c0.039-.041.07-0.087,0.108-0.129,0.025-.025.046-0.054,0.071-0.079a8.025,8.025,0,0,1,11.346,0l62.373,62.364A8.026,8.026,0,0,1,464.59,278.175Zm0.244-33.4-45.891-45.883,23.636-23.634,28.809,28.805Z" transform="translate(-0.313)"/>
</svg>
