<svg xmlns="http://www.w3.org/2000/svg" width="140.812" height="114.688" viewBox="0 0 140.812 114.688">
  <defs>
    <style>
      .cls-1 {
        fill-rule: evenodd;
      }
    </style>
  </defs>
  <path id="Forma_1" data-name="Forma 1" class="cls-1" d="M1.655,1.69A5.015,5.015,0,0,1,5.321.142H88.749A5.014,5.014,0,0,1,92.415,1.69a5.014,5.014,0,0,1,1.548,3.667V21H107a14.159,14.159,0,0,1,8.881,3.666L132.012,40.8a11.075,11.075,0,0,1,1.833,2.444,14.858,14.858,0,0,1,1.141,2.484,13.537,13.537,0,0,1,.529,3.015q0.162,1.915.2,2.812t0,3.1q-0.04,2.2-.041,2.852v26.07a5.288,5.288,0,0,1,5.214,5.215,6.558,6.558,0,0,1-.325,2.158,3.093,3.093,0,0,1-1.1,1.509q-0.774.57-1.344,0.936a4.493,4.493,0,0,1-1.915.489q-1.344.122-1.833,0.163t-2.077,0Q130.707,94,130.463,94h-5.214a20.863,20.863,0,0,1-20.857,20.857A20.862,20.862,0,0,1,83.536,94H52.249a20.1,20.1,0,0,1-6.11,14.746,20.09,20.09,0,0,1-14.746,6.111,20.093,20.093,0,0,1-14.746-6.111A20.091,20.091,0,0,1,10.537,94q-0.245,0-1.833.041t-2.078,0C6.3,94.015,5.688,93.96,4.793,93.879a4.491,4.491,0,0,1-1.915-.489q-0.57-.366-1.344-0.936a3.088,3.088,0,0,1-1.1-1.509,6.51,6.51,0,0,1-.326-2.158V5.358A5.02,5.02,0,0,1,1.655,1.69Zm95.407,99.643A10.229,10.229,0,1,0,93.964,94,10.02,10.02,0,0,0,97.061,101.333Zm-3.1-49.047H125.25V49.843a2.439,2.439,0,0,0-.733-1.793L108.63,32.163a2.438,2.438,0,0,0-1.793-.733H93.964V52.286Zm-69.9,49.047a10.23,10.23,0,0,0,14.666,0,10.23,10.23,0,0,0,0-14.665,10.231,10.231,0,0,0-14.666,0A10.232,10.232,0,0,0,24.061,101.333Z" transform="translate(-0.094 -0.156)"/>
</svg>
