<svg xmlns="http://www.w3.org/2000/svg" width="512" height="478" viewBox="0 0 512 478">
  <defs>
    <style>
      .cls-1 {
        fill-rule: evenodd;
      }
    </style>
  </defs>
  <path class="cls-1" d="M486.4,34.143h-0.825a42.709,42.709,0,0,0-83.682,0H391.709a42.709,42.709,0,0,0-83.682,0H297.843a42.709,42.709,0,0,0-83.682,0H203.977a42.709,42.709,0,0,0-83.682,0H110.111A42.179,42.179,0,0,0,68.27,0,42.179,42.179,0,0,0,26.429,34.143H25.6A25.146,25.146,0,0,0,0,59.75V452.393A25.146,25.146,0,0,0,25.6,478H486.4A25.146,25.146,0,0,0,512,452.393V59.75A25.146,25.146,0,0,0,486.4,34.143ZM443.733,17.071a25.062,25.062,0,0,1,24.224,17.072H419.509A25.064,25.064,0,0,1,443.733,17.071Zm-93.866,0a25.062,25.062,0,0,1,24.224,17.072H325.643A25.062,25.062,0,0,1,349.867,17.071Zm-93.867,0a25.062,25.062,0,0,1,24.224,17.072H231.776A25.063,25.063,0,0,1,256,17.071Zm-93.867,0a25.062,25.062,0,0,1,24.224,17.072H137.909A25.064,25.064,0,0,1,162.133,17.071Zm-93.866,0A25.062,25.062,0,0,1,92.491,34.143H44.043A25.062,25.062,0,0,1,68.267,17.071ZM17.067,59.75c0-5.121,3.413-8.535,8.533-8.535H92.491A25.063,25.063,0,0,1,68.267,68.285c-5.12,0-8.533,3.414-8.533,8.535s3.413,8.535,8.533,8.535a42.179,42.179,0,0,0,41.841-34.143h76.25a25.064,25.064,0,0,1-24.224,17.072c-5.12,0-8.533,3.414-8.533,8.535s3.413,8.535,8.533,8.535a42.179,42.179,0,0,0,41.841-34.143h76.25A25.064,25.064,0,0,1,256,68.285c-5.12,0-8.533,3.414-8.533,8.535s3.413,8.536,8.533,8.536a42.179,42.179,0,0,0,41.841-34.142h76.25a25.064,25.064,0,0,1-24.224,17.072c-5.12,0-8.533,3.414-8.533,8.535s3.413,8.535,8.533,8.535a42.179,42.179,0,0,0,41.841-34.142h76.25a25.064,25.064,0,0,1-24.224,17.072c-5.12,0-8.533,3.414-8.533,8.535s3.413,8.535,8.533,8.535a42.179,42.179,0,0,0,41.841-34.142H486.4c5.12,0,8.533,3.414,8.533,8.535V119.5H17.067V59.75ZM494.933,452.392c0,5.121-3.413,8.535-8.533,8.535H25.6c-5.12,0-8.533-3.414-8.533-8.535V136.571H494.934V452.392h0ZM76.8,239H128c5.12,0,8.533-3.413,8.533-8.535V179.25c0-5.122-3.413-8.535-8.533-8.535H76.8c-5.12,0-8.533,3.413-8.533,8.535v51.214C68.267,235.586,71.68,239,76.8,239Zm8.533-51.214h34.133v34.143H85.333V187.785ZM179.2,239h51.2c5.12,0,8.533-3.413,8.533-8.535V179.25c0-5.122-3.413-8.535-8.533-8.535H179.2c-5.12,0-8.533,3.413-8.533,8.535v51.214C170.667,235.586,174.08,239,179.2,239Zm8.533-51.214h34.133v34.143H187.733V187.785ZM281.6,239h51.2c5.12,0,8.533-3.413,8.533-8.535V179.25c0-5.122-3.413-8.535-8.533-8.535H281.6c-5.12,0-8.533,3.413-8.533,8.535v51.214C273.067,235.586,276.48,239,281.6,239Zm8.533-51.214h34.133v34.143H290.133V187.785ZM384,239h51.2c5.12,0,8.533-3.413,8.533-8.535V179.25c0-5.122-3.413-8.535-8.533-8.535H384c-5.12,0-8.533,3.413-8.533,8.535v51.214C375.467,235.586,378.88,239,384,239Zm8.533-51.214h34.133v34.143H392.533V187.785ZM76.8,332.892H128c5.12,0,8.533-3.413,8.533-8.535V273.143c0-5.121-3.413-8.535-8.533-8.535H76.8c-5.12,0-8.533,3.414-8.533,8.535v51.214C68.267,329.478,71.68,332.892,76.8,332.892Zm8.533-51.214h34.133v34.143H85.333V281.678ZM179.2,332.892h51.2c5.12,0,8.533-3.413,8.533-8.535V273.143c0-5.121-3.413-8.535-8.533-8.535H179.2c-5.12,0-8.533,3.414-8.533,8.535v51.214C170.667,329.478,174.08,332.892,179.2,332.892Zm8.533-51.214h34.133v34.143H187.733V281.678ZM76.8,426.785H128c5.12,0,8.533-3.414,8.533-8.536V367.035c0-5.121-3.413-8.535-8.533-8.535H76.8c-5.12,0-8.533,3.414-8.533,8.535v51.214C68.267,423.371,71.68,426.785,76.8,426.785Zm8.533-51.215h34.133v34.143H85.333V375.57ZM179.2,426.785h51.2c5.12,0,8.533-3.414,8.533-8.536V367.035c0-5.121-3.413-8.535-8.533-8.535H179.2c-5.12,0-8.533,3.414-8.533,8.535v51.214C170.667,423.371,174.08,426.785,179.2,426.785Zm8.533-51.215h34.133v34.143H187.733V375.57ZM358.4,443.856a93.893,93.893,0,1,0-93.867-93.893A93.609,93.609,0,0,0,358.4,443.856Zm0-170.714a76.822,76.822,0,1,1-76.8,76.821A76.49,76.49,0,0,1,358.4,273.142ZM343.893,398.617a7.745,7.745,0,0,0,5.973,2.56c3.413,0,5.973-1.707,6.827-4.268l51.2-76.821c2.56-4.268,1.707-9.39-2.56-11.95s-9.387-1.708-11.947,2.56l-45.227,68.286-26.453-26.46a8.449,8.449,0,0,0-11.947,11.95Z"/>
</svg>
