<svg xmlns="http://www.w3.org/2000/svg" width="549" height="549"><path data-name="Forma 1" d="M274.5 549C426.21 549 549 425.736 549 274.5 549 122.79 425.736 0 274.5 0S0 122.79 0 274.5C0 425.736 122.79 549 274.5 549zm0-510.6c130.376 0 236.1 105.723 236.1 236.1S404.876 510.6 274.5 510.6 38.4 404.4 38.4 274.5c0-130.376 105.724-236.1 236.1-236.1zm-12.8 268.338h91.5a19.438 19.438 0 000-38.875h-72.063V155.028a19.438 19.438 0 10-38.876 0V287.3a19.225 19.225 0 0019.439 19.438z" fill-rule="evenodd"/></svg>