<svg xmlns="http://www.w3.org/2000/svg" width="486.688" height="512"><path d="M243.687 245.243a50.262 50.262 0 1018.843 96.86 7.884 7.884 0 10-5.915-14.616 34.51 34.51 0 1118.516-17.8 7.885 7.885 0 0014.369 6.5 50.258 50.258 0 00-45.813-70.944zm70.744 170.691a33.636 33.636 0 1033.641 33.636 33.676 33.676 0 00-33.642-33.636zm0 51.5a17.869 17.869 0 1117.872-17.869 17.89 17.89 0 01-17.873 17.873zm170.644-271.668l-37.234-37.229a7.884 7.884 0 00-11.149 0l-30.175 30.17a23.685 23.685 0 00-21.859.657l-28.04-21.649a7.884 7.884 0 10-9.638 12.479l27.207 21.006a24.213 24.213 0 00-.652 16.017l-7.948 6.7-62.972-48.617v-29.358l19.278 14.884a7.884 7.884 0 109.639-12.479l-28.916-22.326v-16.633a7.883 7.883 0 00-7.884-7.883h-10.009V92.93h31.707a7.883 7.883 0 007.393-10.624l-28.63-77.164A7.883 7.883 0 00287.8 0h-88.229a7.883 7.883 0 00-7.357 5.049l-8.327 21.614a7.885 7.885 0 0014.715 5.67l6.385-16.566h77.33l22.78 61.394h-123.78l5.125-13.295a7.884 7.884 0 00-14.714-5.67l-9.257 24.014a7.883 7.883 0 007.357 10.718h32.822v8.572h-10.009a7.883 7.883 0 00-7.884 7.883v16.633l-82.042 63.343a23.686 23.686 0 00-21.859-.657l-30.169-30.166a7.884 7.884 0 00-11.15 0L2.298 195.765a7.881 7.881 0 00-2.211 6.827l9.09 56.444a23.787 23.787 0 0026.683 36.178l6.794 8.051a23.77 23.77 0 0029.558 35.027l5.916 7.011a23.77 23.77 0 0029.859 35.376l5.62 6.661a23.77 23.77 0 0032.657 34.029v30.681a7.884 7.884 0 0015.768 0V300.277c0-35.562 24.032-67.862 58.035-78.16a81.6 81.6 0 0123.62-3.484 81.692 81.692 0 0181.658 81.647v87.813a62.407 62.407 0 00-61 98.714A60.615 60.615 0 00272.74 496c.085.077.165.159.251.235H162.027v-12.649a7.884 7.884 0 00-15.768 0v20.531a7.883 7.883 0 007.884 7.883H333.23a7.883 7.883 0 007.619-5.881 62.341 62.341 0 0029.066-85.127 23.756 23.756 0 003.857-33.65l5.62-6.661a23.768 23.768 0 0029.851-35.373l5.918-7.013a23.775 23.775 0 0029.56-35.027l6.794-8.052a23.871 23.871 0 007.092 1.077 23.774 23.774 0 0019.592-37.266l9.088-56.427a7.884 7.884 0 00-2.212-6.834zM218.419 92.928h50.535v8.572h-50.535v-8.572zm-17.9 86.248v-61.9h86.322V180.9h-86.317v-1.719zm-15.767-33.235V175.3l-62.965 48.622-7.932-6.692a23.847 23.847 0 00-.664-16.036zM45.107 175.26l23.636 23.634-45.891 45.883-6.555-40.71zM34.44 278.175l-.009.008a8.088 8.088 0 01-1.041.856c-.067.048-.128.1-.194.153a8.022 8.022 0 01-10.1-12.361l62.375-62.365a8.022 8.022 0 0111.345 0l.021.023c.054.061.1.127.157.186a8.015 8.015 0 01.687 10.081 8.065 8.065 0 01-.865 1.049zm14.366 7.933l55.941-55.932 5.651 4.767-56.824 56.815zm19.29 36.116l-.137.137a8.022 8.022 0 01-11.346-11.345l71.651-71.641a8.019 8.019 0 0111.959 10.648l-.015.017c-.071.089-.139.167-.207.247a7.994 7.994 0 01-.393.433zm69.691 85.717a8.022 8.022 0 01-11.344-11.341l19.815-19.812v22.687zm8.47-53.453L124.7 376.043l-4.769-5.65 26.326-26.322v10.417zm0-54.211v21.5l-42.6 42.594-.785.784a8.024 8.024 0 11-11.345-11.349l54.737-54.729c-.003.401-.006.801-.006 1.2zm3.939-27.427L89.137 333.9l-4.768-5.65 30.939-30.934 31.587-31.583 4.376 3.691q-.568 1.699-1.074 3.426zm93.491-69.984a97.516 97.516 0 00-85.877 51.444l-1.486-1.254a23.706 23.706 0 00-5.564-24.828 24.013 24.013 0 00-4.338-3.409l40.157-31a7.867 7.867 0 006.062 2.844h102.091a7.868 7.868 0 006.063-2.844l40.157 31a23.643 23.643 0 00-9.89 28.227l-1.5 1.263a97.524 97.524 0 00-85.875-51.443zm112.909 266.695a46.562 46.562 0 114.5-19.991 47.036 47.036 0 01-4.5 19.991zm4.343-61.631a62.147 62.147 0 00-19.825-14.817v-16.327l19.815 19.814a8.02 8.02 0 01.01 11.33zm1.733-31.887l-21.557-21.554v-10.418l26.326 26.322zm33.172-10.892a8.025 8.025 0 01-11.346 0l-43.384-43.378v-21.494c0-.4 0-.8-.007-1.2l54.737 54.728a8.03 8.03 0 010 11.344zm2.391-31.25l-61.06-61.05q-.507-1.726-1.074-3.427l4.376-3.691 62.526 62.518zm32.523-11.54a8.024 8.024 0 01-11.345 0l-71.65-71.64a8.19 8.19 0 01-.426-.471c-.057-.067-.111-.13-.171-.205l-.012-.014a8.019 8.019 0 0111.954-10.653l71.651 71.64a8.02 8.02 0 01-.001 11.343zm3.04-30.6l-56.824-56.815 5.651-4.767 27.97 27.965 27.97 27.966zm30.479-13.583a8.025 8.025 0 01-10.1 1.017c-.066-.05-.128-.106-.2-.154a8.1 8.1 0 01-1.048-.863l-62.372-62.368c-.062-.062-.114-.128-.173-.191a8.637 8.637 0 01-.697-.859 8.022 8.022 0 01.685-10.083c.039-.041.07-.087.108-.129.025-.025.046-.054.071-.079a8.025 8.025 0 0111.346 0l62.373 62.364a8.026 8.026 0 01.007 11.342zm.244-33.4l-45.891-45.883 23.636-23.634 28.809 28.805z" fill-rule="evenodd"/></svg>