<svg xmlns="http://www.w3.org/2000/svg" width="512" height="304"><path d="M506.921 145.34l-29.541-17.132L460.5 56.19a42.039 42.039 0 00-41.1-32.555h-84.895v-13.45A10.193 10.193 0 00324.306 0H10.2A10.193 10.193 0 000 10.185v242.8a10.193 10.193 0 0010.2 10.186h32.778a51.094 51.094 0 00100.1 0h206.478a51.094 51.094 0 00100.1 0H501.8A10.193 10.193 0 00512 252.99v-98.841a10.186 10.186 0 00-5.079-8.809zM93.029 283.63a30.64 30.64 0 1130.678-30.639 30.694 30.694 0 01-30.678 30.639zm221.079-77.354h-91.993a10.186 10.186 0 100 20.372h91.993V242.8H143.081a51.094 51.094 0 00-100.1 0H20.4v-52.68h293.71v16.156zm0-172.454v135.926H20.4V20.372h293.71v13.45zm79.562 10.187h25.73a21.722 21.722 0 0121.244 16.825l14.949 63.791h-61.92V44.009zm5.937 239.621a30.7 30.7 0 01-30.6-28.6 10.258 10.258 0 000-4.081 30.673 30.673 0 1130.6 32.681zm91.993-89.171h-19.4v-10.784h19.4v10.784zm0-31.156H462a10.193 10.193 0 00-10.2 10.186v31.156a10.193 10.193 0 0010.2 10.186h29.6V242.8h-41.941a51.094 51.094 0 00-100.1 0h-15.05V44.008h38.766v90.8A10.193 10.193 0 00383.471 145h82.235l25.894 15.015v3.285zm-303.907 42.973h-8.606a10.186 10.186 0 100 20.372h8.606a10.186 10.186 0 100-20.372z" fill-rule="evenodd"/></svg>