<svg xmlns="http://www.w3.org/2000/svg" width="140.812" height="114.688"><path data-name="Forma 1" d="M1.561 1.534A5.015 5.015 0 015.227-.014h83.428a5.014 5.014 0 013.666 1.548 5.014 5.014 0 011.548 3.667v15.643h13.037a14.159 14.159 0 018.881 3.666l16.131 16.134a11.075 11.075 0 011.833 2.444 14.858 14.858 0 011.141 2.484 13.537 13.537 0 01.529 3.015q.162 1.915.2 2.812t0 3.1q-.04 2.2-.041 2.852v26.07a5.288 5.288 0 015.214 5.215 6.558 6.558 0 01-.325 2.158 3.093 3.093 0 01-1.1 1.509q-.774.57-1.344.936a4.493 4.493 0 01-1.915.489q-1.344.122-1.833.163t-2.077 0q-1.587-.047-1.831-.047h-5.214a20.863 20.863 0 01-20.857 20.857 20.862 20.862 0 01-20.856-20.857H52.155a20.1 20.1 0 01-6.11 14.746 20.09 20.09 0 01-14.746 6.111 20.093 20.093 0 01-14.746-6.111 20.091 20.091 0 01-6.11-14.746q-.245 0-1.833.041t-2.078 0c-.326-.026-.938-.081-1.833-.162a4.491 4.491 0 01-1.915-.489q-.57-.366-1.344-.936a3.088 3.088 0 01-1.1-1.509 6.51 6.51 0 01-.326-2.158V5.202a5.02 5.02 0 011.547-3.668zm95.407 99.643a10.229 10.229 0 10-3.098-7.333 10.02 10.02 0 003.097 7.333zm-3.1-49.047h31.288v-2.443a2.439 2.439 0 00-.733-1.793l-15.887-15.887a2.438 2.438 0 00-1.793-.733H93.87V52.13zm-69.9 49.047a10.23 10.23 0 0014.666 0 10.23 10.23 0 000-14.665 10.231 10.231 0 00-14.666 0 10.232 10.232 0 00-.001 14.665z" fill-rule="evenodd"/></svg>