<svg xmlns="http://www.w3.org/2000/svg" width="549" height="474"><path data-name="Forma 1" d="M.473 456.919a3.59 3.59 0 00.474 1.9c0 .474.474 1.423.474 1.9a10.758 10.758 0 01.474 1.9 6.941 6.941 0 01.948 1.9c.474.475.474.949.948 1.424a2.513 2.513 0 01.948 1.423l1.422 1.424.474.474a.465.465 0 01.474.475 11.3 11.3 0 005.215 2.846.946.946 0 01.948.475 23.8 23.8 0 005.689.949h511.55a23.8 23.8 0 005.689-.949.946.946 0 00.948-.475 51.408 51.408 0 005.215-2.846.465.465 0 00.474-.475l.475-.474 1.422-1.424a2.514 2.514 0 00.948-1.423c.474-.475.474-.949.948-1.424a6.957 6.957 0 00.948-1.9 2.292 2.292 0 00.474-1.9c0-.475.474-1.424.474-1.9a10.767 10.767 0 00.475-1.9V19.454A19.234 19.234 0 00529.563 0H19.437A19.233 19.233 0 000 19.454v435.567a2.291 2.291 0 01.473 1.898zm60.684-22.3l143.651-171.76 59.736 41.754a19.561 19.561 0 0021.808 0l59.736-41.754 143.651 171.759H61.157zm450.864-34.162l-134.168-159.9 133.694-93.472v253.371h.474zM38.875 38.907h472.672v61.207l-236.1 164.643L38.875 100.114V38.907zm0 108.18l133.7 93.472-133.7 159.9V147.087z" fill-rule="evenodd"/></svg>