<?xml version="1.0" encoding="utf-8"?><svg viewBox="0 0 730.875 800" xmlns="http://www.w3.org/2000/svg" xmlns:xlink="http://www.w3.org/1999/xlink"><style>:root>svg{display:none}:root>svg:target{display:block}</style><svg viewBox="0 0 460 512" id="icon-bonus-telemarketer" xmlns="http://www.w3.org/2000/svg"><path d="M377.8 395.844c-13.617-5.956-29.069-12.689-46.646-20.736l-.795-.358-.623.606a164.217 164.217 0 01-19.379 16.06l-1.793 1.263 1.989.93c22.076 10.257 41.2 18.662 57.378 25.737 60.023 26.18 67.605 31.292 67.605 45.559 0 9.8-9.664 21.641-21.651 21.641H47.108c-11.986 0-21.65-11.844-21.65-21.641 0-14.268 7.589-19.379 67.605-45.559 16.178-7.074 35.309-15.479 57.378-25.737l1.988-.93-1.792-1.263a165.74 165.74 0 01-19.38-16.06l-.623-.606-.794.358c-17.587 8.038-33.031 14.78-46.646 20.736C22.649 422.263 0 432.154 0 464.913 0 489.557 22.453 512 47.108 512h366.784C438.547 512 461 489.557 461 464.913c0-32.759-22.649-42.65-83.2-69.069zM409.778 153.6h-25.611a153.667 153.667 0 00-307.333 0H51.223a25.6 25.6 0 00-25.611 25.6V256a25.6 25.6 0 0025.611 25.6h25.611a25.33 25.33 0 0018.875-8.627 40.167 40.167 0 002.39 3.285c17.732 70.153 70.371 121.174 132.4 121.174 63.533 0 117.1-53.572 133.519-126.353 4.67 6.229 11.764 10.522 20.148 10.522h25.611A25.6 25.6 0 00435.389 256v-76.8a25.6 25.6 0 00-25.611-25.6zM76.834 256H51.223v-76.8h25.611V256zM230.5 371.985c-41.43 0-77.644-29.21-97.416-72.559C163.433 312.627 203.215 320 230.5 320a12.8 12.8 0 100-25.6c-45.024 0-93.036-17.988-109.154-30.822a189.1 189.1 0 01-4.192-39.262c0-81.425 50.855-147.669 113.346-147.669s113.346 66.244 113.346 147.669S292.991 371.985 230.5 371.985zm127.748-215.33C337.076 94.729 287.792 51.2 230.5 51.2S123.924 94.729 102.752 156.655c-.026-1.041-.307-2.014-.307-3.055 0-70.579 57.446-128 128.055-128s128.055 57.421 128.055 128c0 1.041-.282 2.014-.307 3.055zM409.778 256h-25.611v-76.8h25.611V256z" fill-rule="evenodd"/></svg><svg viewBox="0 0 512 304" id="icon-bonus-truck" xmlns="http://www.w3.org/2000/svg"><path d="M506.921 145.34l-29.541-17.132L460.5 56.19a42.039 42.039 0 00-41.1-32.555h-84.895v-13.45A10.193 10.193 0 00324.306 0H10.2A10.193 10.193 0 000 10.185v242.8a10.193 10.193 0 0010.2 10.186h32.778a51.094 51.094 0 00100.1 0h206.478a51.094 51.094 0 00100.1 0H501.8A10.193 10.193 0 00512 252.99v-98.841a10.186 10.186 0 00-5.079-8.809zM93.029 283.63a30.64 30.64 0 1130.678-30.639 30.694 30.694 0 01-30.678 30.639zm221.079-77.354h-91.993a10.186 10.186 0 100 20.372h91.993V242.8H143.081a51.094 51.094 0 00-100.1 0H20.4v-52.68h293.71v16.156zm0-172.454v135.926H20.4V20.372h293.71v13.45zm79.562 10.187h25.73a21.722 21.722 0 0121.244 16.825l14.949 63.791h-61.92V44.009zm5.937 239.621a30.7 30.7 0 01-30.6-28.6 10.258 10.258 0 000-4.081 30.673 30.673 0 1130.6 32.681zm91.993-89.171h-19.4v-10.784h19.4v10.784zm0-31.156H462a10.193 10.193 0 00-10.2 10.186v31.156a10.193 10.193 0 0010.2 10.186h29.6V242.8h-41.941a51.094 51.094 0 00-100.1 0h-15.05V44.008h38.766v90.8A10.193 10.193 0 00383.471 145h82.235l25.894 15.015v3.285zm-303.907 42.973h-8.606a10.186 10.186 0 100 20.372h8.606a10.186 10.186 0 100-20.372z" fill-rule="evenodd"/></svg><svg viewBox="0 0 123 125" id="icon-calendar" xmlns="http://www.w3.org/2000/svg"><path data-name="Forma 1" d="M47.16 80.475l-1.917 11.391a4.152 4.152 0 006.017 4.377L61.5 90.9l10.238 5.346a4.154 4.154 0 006.02-4.377l-1.916-11.394 8.244-8.089a4.157 4.157 0 00-2.3-7.081L70.364 63.61l-5.145-10.344a4.156 4.156 0 00-7.443 0l-5.14 10.344-11.423 1.69a4.157 4.157 0 00-2.3 7.081zm63.431-67.185h-13.08V6.033A6.029 6.029 0 0091.483 0h-.956A6.029 6.029 0 0084.5 6.033v7.257H38.349V6.033A6.03 6.03 0 0032.322 0h-.958a6.029 6.029 0 00-6.028 6.031v7.259H12.409A12.424 12.424 0 000 25.7v86.885A12.426 12.426 0 0012.409 125h98.182A12.426 12.426 0 00123 112.587V25.7a12.424 12.424 0 00-12.409-12.41zm-1.619 97.677H14.028V43.333h94.944v67.634z" fill-rule="evenodd"/></svg><svg viewBox="0 0 56.625 55.75" id="icon-call" xmlns="http://www.w3.org/2000/svg"><path data-name="Forma 1" d="M55.346 44.683l-8.742-8.744a4.56 4.56 0 00-6.427.121l-4.4 4.4-.869-.484a43.825 43.825 0 01-10.596-7.658 44.055 44.055 0 01-7.677-10.612c-.164-.3-.32-.579-.474-.849l2.951-2.952 1.456-1.455a4.553 4.553 0 00.117-6.427l-8.742-8.744a4.554 4.554 0 00-6.431.121l-2.46 2.478.068.067a14.23 14.23 0 00-2.03 3.581 14.846 14.846 0 00-.9 3.632c-1.154 9.57 3.219 18.316 15.087 30.185C31.678 57.75 44.899 56.508 45.47 56.45a14.778 14.778 0 003.643-.915 14.2 14.2 0 003.568-2.022l.054.048 2.5-2.444a4.561 4.561 0 00.111-6.434z" fill-rule="evenodd"/></svg><svg viewBox="0 0 549 549" id="icon-clock" xmlns="http://www.w3.org/2000/svg"><path data-name="Forma 1" d="M274.5 549C426.21 549 549 425.736 549 274.5 549 122.79 425.736 0 274.5 0S0 122.79 0 274.5C0 425.736 122.79 549 274.5 549zm0-510.6c130.376 0 236.1 105.723 236.1 236.1S404.876 510.6 274.5 510.6 38.4 404.4 38.4 274.5c0-130.376 105.724-236.1 236.1-236.1zm-12.8 268.338h91.5a19.438 19.438 0 000-38.875h-72.063V155.028a19.438 19.438 0 10-38.876 0V287.3a19.225 19.225 0 0019.439 19.438z" fill-rule="evenodd"/></svg><svg viewBox="0 0 549 474" id="icon-email" xmlns="http://www.w3.org/2000/svg"><path data-name="Forma 1" d="M.473 456.919a3.59 3.59 0 00.474 1.9c0 .474.474 1.423.474 1.9a10.758 10.758 0 01.474 1.9 6.941 6.941 0 01.948 1.9c.474.475.474.949.948 1.424a2.513 2.513 0 01.948 1.423l1.422 1.424.474.474a.465.465 0 01.474.475 11.3 11.3 0 005.215 2.846.946.946 0 01.948.475 23.8 23.8 0 005.689.949h511.55a23.8 23.8 0 005.689-.949.946.946 0 00.948-.475 51.408 51.408 0 005.215-2.846.465.465 0 00.474-.475l.475-.474 1.422-1.424a2.514 2.514 0 00.948-1.423c.474-.475.474-.949.948-1.424a6.957 6.957 0 00.948-1.9 2.292 2.292 0 00.474-1.9c0-.475.474-1.424.474-1.9a10.767 10.767 0 00.475-1.9V19.454A19.234 19.234 0 00529.563 0H19.437A19.233 19.233 0 000 19.454v435.567a2.291 2.291 0 01.473 1.898zm60.684-22.3l143.651-171.76 59.736 41.754a19.561 19.561 0 0021.808 0l59.736-41.754 143.651 171.759H61.157zm450.864-34.162l-134.168-159.9 133.694-93.472v253.371h.474zM38.875 38.907h472.672v61.207l-236.1 164.643L38.875 100.114V38.907zm0 108.18l133.7 93.472-133.7 159.9V147.087z" fill-rule="evenodd"/></svg><svg viewBox="0 0 403.25 512" id="icon-medal" xmlns="http://www.w3.org/2000/svg"><path d="M307.653 393.488a56.12 56.12 0 01-74.281 24.136L201.5 402.02l-31.874 15.6a56.1 56.1 0 01-74.289-24.144l-4.069-7.676v107.54a18.714 18.714 0 0027.088 16.76l83.15-41.589 83.133 41.589a18.721 18.721 0 0027.09-16.755V385.8zm90.327-213.582l-37.413-38.7 7.54-53.3a18.731 18.731 0 00-15.3-21.078l-52.99-9.3-25.231-47.571a18.7 18.7 0 00-24.757-8.049l-48.324 23.64L153.17 1.906a18.7 18.7 0 00-24.757 8.052L103.2 57.532l-53 9.297a18.731 18.731 0 00-15.3 21.077l7.534 53.3-37.414 38.7a18.743 18.743 0 000 26.053l37.413 38.692-7.533 53.338a18.732 18.732 0 0015.306 21.076l41.062 7.2 11.932 2.093 6.787 12.8 18.428 34.757c.091.175.2.338.292.51a18.683 18.683 0 0024.466 7.54l48.33-23.656 48.319 23.656a18.683 18.683 0 0024.466-7.535c.1-.171.2-.335.293-.511l18.426-34.74 6.8-12.824 11.919-2.091 41.073-7.2a18.731 18.731 0 0015.3-21.077l-7.54-53.336 37.412-38.691a18.745 18.745 0 00.009-26.054zm-196.474 106.7A93.673 93.673 0 11295.1 192.93a93.749 93.749 0 01-93.594 93.681zm0-149.879a56.206 56.206 0 1056.153 56.2 56.244 56.244 0 00-56.153-56.195z" fill-rule="evenodd"/></svg><svg viewBox="0 0 685 800" id="icon-piggy-bank" xmlns="http://www.w3.org/2000/svg"><path d="M201.235 402.834c111.112 0 201.236-90.168 201.236-201.334S312.347 0 201.235 0 0 90.167 0 201.333s90.122 201.501 201.235 201.501zM130.936 281c1.832-6.667 3.665-13.167 5.664-19.834 2.332-7.666 4.5-8.5 11.494-4.833a112.44 112.44 0 0037.982 11.333 46.806 46.806 0 0024.821-3.333c14.826-6.5 17.158-23.667 4.664-34A60.8 60.8 0 00201.4 222c-12.994-5.667-26.487-10-38.815-17.334-19.824-11.833-32.484-28.333-30.985-52.5 1.666-27.333 17.158-44.5 42.146-53.5 10.329-3.833 10.329-3.666 10.5-14.5v-11c.167-8.166 1.666-9.5 9.662-9.833h7.5c17.324 0 17.324 0 17.324 17.333 0 12.167 0 12.334 12.161 14.167a108.087 108.087 0 0126.821 8c4.83 2.167 6.5 5.5 5.163 10.5-2.165 7.5-4.164 15-6.662 22.333-2.333 7-4.5 8-11.162 4.834A85.605 85.605 0 00202.4 132a29.292 29.292 0 00-11.328 2.333c-12.827 5.667-14.993 19.833-4 28.667 5.5 4.5 11.828 7.666 18.491 10.333 11.328 4.667 22.823 9.333 33.817 15.333 34.483 19.167 43.812 62.5 19.49 92a64.764 64.764 0 01-33.65 21.5c-5.83 1.667-8.5 4.667-8.162 10.667s0 11.833 0 17.833c0 5.334-2.666 8.167-8 8.334-6.33.166-12.827.166-19.157 0-5.664-.167-8.329-3.334-8.329-8.834 0-4.333 0-8.666-.167-13-.167-9.5-.333-10-9.662-11.5-11.827-1.833-23.322-4.5-34.15-9.833-8.156-3.833-8.993-6-6.657-14.833zm521.746 138.666h-23.489C613.7 372.166 583.383 330 542.9 297.333a22.466 22.466 0 00-.666-4.667c-8.5-29.833 2-57 14.16-76.5C564.892 202.5 553.9 185 537.905 187c-35.816 4.5-60.471 17.666-77.463 32.5a75.31 75.31 0 00-23.655 39C411.133 364.833 315.346 444 201.235 444a240.851 240.851 0 01-147.262-50 235.6 235.6 0 00-15.16 154.667 2.912 2.912 0 00.167.833 240.635 240.635 0 0019.99 53.167C70.465 627.5 87.124 656.5 110.112 680c33.151 34.167 38.815 76.5 39.648 94.833v9A17.444 17.444 0 00167.085 800h105.282a17.316 17.316 0 0017.325-17.333v-26a361.974 361.974 0 0046.811 3.166 335.86 335.86 0 0036.815-2v24.834A17.315 17.315 0 00390.643 800h105.615a17.317 17.317 0 0017.326-17.333v-26C513.75 748 516.748 713.5 549.4 684l3.5-3c.332-.333.666-.5 1-.833 36.312-32.334 63.133-72.667 76.96-117.667h22.156a32 32 0 0031.984-32v-78.833a32.505 32.505 0 00-32.318-32.001zm-131.769 5.667a26.167 26.167 0 1126.154-26.167 26.1 26.1 0 01-26.154 26.167z" fill-rule="evenodd"/></svg><svg viewBox="0 0 730.875 799.5" id="icon-questions-reload" xmlns="http://www.w3.org/2000/svg"><path d="M149.005 158.52c118.159-106.776 294.99-108.409 414.783-10.939l-94.952 3.592a22.048 22.048 0 00.817 44.081h.822l145.778-5.387a22.007 22.007 0 0021.246-22.041v-2.612l-5.393-144a22.08 22.08 0 00-44.131 1.632l3.431 90.286c-59.324-48.49-132.377-76.572-210.5-80.49A362.642 362.642 0 0010.254 480.316a21.961 21.961 0 0021.409 16.816 19.169 19.169 0 005.23-.652 22.071 22.071 0 0016.182-26.613 318.344 318.344 0 0195.93-311.347zm572.492 160.653a22.04 22.04 0 00-42.822 10.449 318.807 318.807 0 01-513.33 320.164l96.1-8.653a22.054 22.054 0 10-4.085-43.919l-145.285 13.062a22.022 22.022 0 00-19.938 24l13.074 145.143a22.016 22.016 0 0021.895 20.081 7.976 7.976 0 001.961-.163 22.022 22.022 0 0019.938-24l-7.844-88.327c59.324 48 132.05 75.919 209.679 79.837 6.211.327 12.42.49 18.468.49 90.049 0 175.685-32.98 243.019-93.715a362.3 362.3 0 00109.17-354.449z" fill-rule="evenodd"/></svg><svg viewBox="0 0 512 478" id="icon-shipping-calendar" xmlns="http://www.w3.org/2000/svg"><path d="M486.4 34.143h-.825a42.709 42.709 0 00-83.682 0h-10.184a42.709 42.709 0 00-83.682 0h-10.184a42.709 42.709 0 00-83.682 0h-10.184a42.709 42.709 0 00-83.682 0h-10.184A42.179 42.179 0 0068.27 0a42.179 42.179 0 00-41.841 34.143H25.6A25.146 25.146 0 000 59.75v392.643A25.146 25.146 0 0025.6 478h460.8a25.146 25.146 0 0025.6-25.607V59.75a25.146 25.146 0 00-25.6-25.607zm-42.667-17.072a25.062 25.062 0 0124.224 17.072h-48.448a25.064 25.064 0 0124.224-17.072zm-93.866 0a25.062 25.062 0 0124.224 17.072h-48.448a25.062 25.062 0 0124.224-17.072zm-93.867 0a25.062 25.062 0 0124.224 17.072h-48.448A25.063 25.063 0 01256 17.071zm-93.867 0a25.062 25.062 0 0124.224 17.072h-48.448a25.064 25.064 0 0124.224-17.072zm-93.866 0a25.062 25.062 0 0124.224 17.072H44.043a25.062 25.062 0 0124.224-17.072zm-51.2 42.679c0-5.121 3.413-8.535 8.533-8.535h66.891a25.063 25.063 0 01-24.224 17.07c-5.12 0-8.533 3.414-8.533 8.535s3.413 8.535 8.533 8.535a42.179 42.179 0 0041.841-34.143h76.25a25.064 25.064 0 01-24.224 17.072c-5.12 0-8.533 3.414-8.533 8.535s3.413 8.535 8.533 8.535a42.179 42.179 0 0041.841-34.143h76.25A25.064 25.064 0 01256 68.285c-5.12 0-8.533 3.414-8.533 8.535s3.413 8.536 8.533 8.536a42.179 42.179 0 0041.841-34.142h76.25a25.064 25.064 0 01-24.224 17.072c-5.12 0-8.533 3.414-8.533 8.535s3.413 8.535 8.533 8.535a42.179 42.179 0 0041.841-34.142h76.25a25.064 25.064 0 01-24.224 17.072c-5.12 0-8.533 3.414-8.533 8.535s3.413 8.535 8.533 8.535a42.179 42.179 0 0041.841-34.142h.825c5.12 0 8.533 3.414 8.533 8.535V119.5H17.067V59.75zm477.866 392.642c0 5.121-3.413 8.535-8.533 8.535H25.6c-5.12 0-8.533-3.414-8.533-8.535V136.571h477.867v315.821zM76.8 239H128c5.12 0 8.533-3.413 8.533-8.535V179.25c0-5.122-3.413-8.535-8.533-8.535H76.8c-5.12 0-8.533 3.413-8.533 8.535v51.214c0 5.122 3.413 8.536 8.533 8.536zm8.533-51.214h34.133v34.143H85.333v-34.144zM179.2 239h51.2c5.12 0 8.533-3.413 8.533-8.535V179.25c0-5.122-3.413-8.535-8.533-8.535h-51.2c-5.12 0-8.533 3.413-8.533 8.535v51.214c0 5.122 3.413 8.536 8.533 8.536zm8.533-51.214h34.133v34.143h-34.133v-34.144zM281.6 239h51.2c5.12 0 8.533-3.413 8.533-8.535V179.25c0-5.122-3.413-8.535-8.533-8.535h-51.2c-5.12 0-8.533 3.413-8.533 8.535v51.214c0 5.122 3.413 8.536 8.533 8.536zm8.533-51.214h34.133v34.143h-34.133v-34.144zM384 239h51.2c5.12 0 8.533-3.413 8.533-8.535V179.25c0-5.122-3.413-8.535-8.533-8.535H384c-5.12 0-8.533 3.413-8.533 8.535v51.214c0 5.122 3.413 8.536 8.533 8.536zm8.533-51.214h34.133v34.143h-34.133v-34.144zM76.8 332.892H128c5.12 0 8.533-3.413 8.533-8.535v-51.214c0-5.121-3.413-8.535-8.533-8.535H76.8c-5.12 0-8.533 3.414-8.533 8.535v51.214c0 5.121 3.413 8.535 8.533 8.535zm8.533-51.214h34.133v34.143H85.333v-34.143zm93.867 51.214h51.2c5.12 0 8.533-3.413 8.533-8.535v-51.214c0-5.121-3.413-8.535-8.533-8.535h-51.2c-5.12 0-8.533 3.414-8.533 8.535v51.214c0 5.121 3.413 8.535 8.533 8.535zm8.533-51.214h34.133v34.143h-34.133v-34.143zM76.8 426.785H128c5.12 0 8.533-3.414 8.533-8.536v-51.214c0-5.121-3.413-8.535-8.533-8.535H76.8c-5.12 0-8.533 3.414-8.533 8.535v51.214c0 5.122 3.413 8.536 8.533 8.536zm8.533-51.215h34.133v34.143H85.333V375.57zm93.867 51.215h51.2c5.12 0 8.533-3.414 8.533-8.536v-51.214c0-5.121-3.413-8.535-8.533-8.535h-51.2c-5.12 0-8.533 3.414-8.533 8.535v51.214c0 5.122 3.413 8.536 8.533 8.536zm8.533-51.215h34.133v34.143h-34.133V375.57zM358.4 443.856a93.893 93.893 0 10-93.867-93.893 93.609 93.609 0 0093.867 93.893zm0-170.714a76.822 76.822 0 11-76.8 76.821 76.49 76.49 0 0176.8-76.821zm-14.507 125.475a7.745 7.745 0 005.973 2.56c3.413 0 5.973-1.707 6.827-4.268l51.2-76.821c2.56-4.268 1.707-9.39-2.56-11.95s-9.387-1.708-11.947 2.56l-45.227 68.286-26.453-26.46a8.449 8.449 0 00-11.947 11.95z" fill-rule="evenodd"/></svg><svg viewBox="0 0 486.688 512" id="icon-shipping-engine" xmlns="http://www.w3.org/2000/svg"><path d="M243.687 245.243a50.262 50.262 0 1018.843 96.86 7.884 7.884 0 10-5.915-14.616 34.51 34.51 0 1118.516-17.8 7.885 7.885 0 0014.369 6.5 50.258 50.258 0 00-45.813-70.944zm70.744 170.691a33.636 33.636 0 1033.641 33.636 33.676 33.676 0 00-33.642-33.636zm0 51.5a17.869 17.869 0 1117.872-17.869 17.89 17.89 0 01-17.873 17.873zm170.644-271.668l-37.234-37.229a7.884 7.884 0 00-11.149 0l-30.175 30.17a23.685 23.685 0 00-21.859.657l-28.04-21.649a7.884 7.884 0 10-9.638 12.479l27.207 21.006a24.213 24.213 0 00-.652 16.017l-7.948 6.7-62.972-48.617v-29.358l19.278 14.884a7.884 7.884 0 109.639-12.479l-28.916-22.326v-16.633a7.883 7.883 0 00-7.884-7.883h-10.009V92.93h31.707a7.883 7.883 0 007.393-10.624l-28.63-77.164A7.883 7.883 0 00287.8 0h-88.229a7.883 7.883 0 00-7.357 5.049l-8.327 21.614a7.885 7.885 0 0014.715 5.67l6.385-16.566h77.33l22.78 61.394h-123.78l5.125-13.295a7.884 7.884 0 00-14.714-5.67l-9.257 24.014a7.883 7.883 0 007.357 10.718h32.822v8.572h-10.009a7.883 7.883 0 00-7.884 7.883v16.633l-82.042 63.343a23.686 23.686 0 00-21.859-.657l-30.169-30.166a7.884 7.884 0 00-11.15 0L2.298 195.765a7.881 7.881 0 00-2.211 6.827l9.09 56.444a23.787 23.787 0 0026.683 36.178l6.794 8.051a23.77 23.77 0 0029.558 35.027l5.916 7.011a23.77 23.77 0 0029.859 35.376l5.62 6.661a23.77 23.77 0 0032.657 34.029v30.681a7.884 7.884 0 0015.768 0V300.277c0-35.562 24.032-67.862 58.035-78.16a81.6 81.6 0 0123.62-3.484 81.692 81.692 0 0181.658 81.647v87.813a62.407 62.407 0 00-61 98.714A60.615 60.615 0 00272.74 496c.085.077.165.159.251.235H162.027v-12.649a7.884 7.884 0 00-15.768 0v20.531a7.883 7.883 0 007.884 7.883H333.23a7.883 7.883 0 007.619-5.881 62.341 62.341 0 0029.066-85.127 23.756 23.756 0 003.857-33.65l5.62-6.661a23.768 23.768 0 0029.851-35.373l5.918-7.013a23.775 23.775 0 0029.56-35.027l6.794-8.052a23.871 23.871 0 007.092 1.077 23.774 23.774 0 0019.592-37.266l9.088-56.427a7.884 7.884 0 00-2.212-6.834zM218.419 92.928h50.535v8.572h-50.535v-8.572zm-17.9 86.248v-61.9h86.322V180.9h-86.317v-1.719zm-15.767-33.235V175.3l-62.965 48.622-7.932-6.692a23.847 23.847 0 00-.664-16.036zM45.107 175.26l23.636 23.634-45.891 45.883-6.555-40.71zM34.44 278.175l-.009.008a8.088 8.088 0 01-1.041.856c-.067.048-.128.1-.194.153a8.022 8.022 0 01-10.1-12.361l62.375-62.365a8.022 8.022 0 0111.345 0l.021.023c.054.061.1.127.157.186a8.015 8.015 0 01.687 10.081 8.065 8.065 0 01-.865 1.049zm14.366 7.933l55.941-55.932 5.651 4.767-56.824 56.815zm19.29 36.116l-.137.137a8.022 8.022 0 01-11.346-11.345l71.651-71.641a8.019 8.019 0 0111.959 10.648l-.015.017c-.071.089-.139.167-.207.247a7.994 7.994 0 01-.393.433zm69.691 85.717a8.022 8.022 0 01-11.344-11.341l19.815-19.812v22.687zm8.47-53.453L124.7 376.043l-4.769-5.65 26.326-26.322v10.417zm0-54.211v21.5l-42.6 42.594-.785.784a8.024 8.024 0 11-11.345-11.349l54.737-54.729c-.003.401-.006.801-.006 1.2zm3.939-27.427L89.137 333.9l-4.768-5.65 30.939-30.934 31.587-31.583 4.376 3.691q-.568 1.699-1.074 3.426zm93.491-69.984a97.516 97.516 0 00-85.877 51.444l-1.486-1.254a23.706 23.706 0 00-5.564-24.828 24.013 24.013 0 00-4.338-3.409l40.157-31a7.867 7.867 0 006.062 2.844h102.091a7.868 7.868 0 006.063-2.844l40.157 31a23.643 23.643 0 00-9.89 28.227l-1.5 1.263a97.524 97.524 0 00-85.875-51.443zm112.909 266.695a46.562 46.562 0 114.5-19.991 47.036 47.036 0 01-4.5 19.991zm4.343-61.631a62.147 62.147 0 00-19.825-14.817v-16.327l19.815 19.814a8.02 8.02 0 01.01 11.33zm1.733-31.887l-21.557-21.554v-10.418l26.326 26.322zm33.172-10.892a8.025 8.025 0 01-11.346 0l-43.384-43.378v-21.494c0-.4 0-.8-.007-1.2l54.737 54.728a8.03 8.03 0 010 11.344zm2.391-31.25l-61.06-61.05q-.507-1.726-1.074-3.427l4.376-3.691 62.526 62.518zm32.523-11.54a8.024 8.024 0 01-11.345 0l-71.65-71.64a8.19 8.19 0 01-.426-.471c-.057-.067-.111-.13-.171-.205l-.012-.014a8.019 8.019 0 0111.954-10.653l71.651 71.64a8.02 8.02 0 01-.001 11.343zm3.04-30.6l-56.824-56.815 5.651-4.767 27.97 27.965 27.97 27.966zm30.479-13.583a8.025 8.025 0 01-10.1 1.017c-.066-.05-.128-.106-.2-.154a8.1 8.1 0 01-1.048-.863l-62.372-62.368c-.062-.062-.114-.128-.173-.191a8.637 8.637 0 01-.697-.859 8.022 8.022 0 01.685-10.083c.039-.041.07-.087.108-.129.025-.025.046-.054.071-.079a8.025 8.025 0 0111.346 0l62.373 62.364a8.026 8.026 0 01.007 11.342zm.244-33.4l-45.891-45.883 23.636-23.634 28.809 28.805z" fill-rule="evenodd"/></svg><svg viewBox="0 0 95 92" id="icon-shipping-map" xmlns="http://www.w3.org/2000/svg"><path data-name="Forma 1" d="M89.252 38.2h-18.82a1.736 1.736 0 000 3.471h15.717l5.006 46.859H3.916l5.876-46.859h15.745a1.736 1.736 0 000-3.471H6.746L0 92h95zM46.025 65.89c-.254.151-.525.285-.768.443-.38.246-.751.5-1.116.772a1.743 1.743 0 00-.371 2.426 1.726 1.726 0 002.416.373c.307-.227.62-.446.946-.658a18.964 18.964 0 011.751-1.008 1.727 1.727 0 00.8-2.2c.014-.014.031-.024.043-.038 3.124-3.325 13.65-15.786 18.008-36.546a35.845 35.845 0 00.591-12.008C66.837 6.032 59.783 0 47.924 0s-18.91 6.033-20.4 17.444a35.888 35.888 0 00.592 12.008c4.317 20.558 14.678 32.97 17.909 36.438zM30.95 17.9c1.266-9.7 6.819-14.424 16.976-14.424S63.636 8.191 64.9 17.9a32.466 32.466 0 01-.546 10.842 76.5 76.5 0 01-16.428 34.1A76.517 76.517 0 0131.5 28.738a32.464 32.464 0 01-.55-10.838zm16.976 14.941a12.749 12.749 0 10-12.685-12.749 12.73 12.73 0 0012.685 12.749zm0-22.025a9.278 9.278 0 11-9.231 9.278 9.266 9.266 0 019.231-9.279zm6.342 51.954a1.735 1.735 0 10.722 3.395c1.012-.215 2.108-.4 3.257-.543a1.73 1.73 0 001.5-1.935 1.713 1.713 0 00-1.925-1.508 40.887 40.887 0 00-3.554.59zm8.929.7a1.73 1.73 0 001.723 1.661h.076l3.455-.144a1.731 1.731 0 001.649-1.81 1.774 1.774 0 00-1.8-1.656l-3.447.144a1.729 1.729 0 00-1.653 1.809zm-24.461 7.989c-.887.673-1.8 1.321-2.728 1.921a1.742 1.742 0 00-.508 2.4 1.724 1.724 0 002.39.51 51.227 51.227 0 002.927-2.062 1.745 1.745 0 00.338-2.431 1.727 1.727 0 00-2.419-.338zM77.22 60.015a6.135 6.135 0 01-2.324.913 1.736 1.736 0 10.7 3.4 9.472 9.472 0 003.619-1.48l.231-.17a1.743 1.743 0 00.335-2.431 1.724 1.724 0 00-2.419-.337zM15.3 73.585a1.727 1.727 0 10-3.333-.906 11.657 11.657 0 00-.388 2.438c-.009.2-.014.4-.014.613 0 .34.017.68.05 1.019a1.73 1.73 0 001.716 1.558c.057 0 .116 0 .178-.009a1.737 1.737 0 001.544-1.9 7.11 7.11 0 01-.023-1.107 8.118 8.118 0 01.27-1.706zm61.884-27.06a10.1 10.1 0 00-4.12.314 1.736 1.736 0 00.468 3.405 1.679 1.679 0 00.468-.066 6.706 6.706 0 012.72-.212 1.736 1.736 0 00.462-3.441zm3.436 8.6a1.736 1.736 0 001.14 2.169 1.683 1.683 0 00.509.078 1.724 1.724 0 001.649-1.224 7.431 7.431 0 00.316-1.671c.009-.144.014-.29.014-.434a6.956 6.956 0 00-.44-2.416 1.728 1.728 0 10-3.238 1.206 3.494 3.494 0 01.224 1.208l-.005.2a3.933 3.933 0 01-.171.882zM30.185 76.643c-1.012.477-2.043.92-3.063 1.317a1.737 1.737 0 00.623 3.355 1.7 1.7 0 00.622-.116c1.1-.425 2.2-.9 3.286-1.411a1.738 1.738 0 00.829-2.308 1.718 1.718 0 00-2.297-.837zm-12.571-7.225a1.72 1.72 0 00.825-.212 4.207 4.207 0 011.573-.5 2.783 2.783 0 01.7 0 1.712 1.712 0 001.937-1.493 1.733 1.733 0 00-1.485-1.947 6.343 6.343 0 00-1.539-.014 7.648 7.648 0 00-2.842.9 1.737 1.737 0 00.831 3.266zm-.359 13.608a8.538 8.538 0 001.129.215 10.974 10.974 0 001.328.082 12.751 12.751 0 001.623-.108 1.735 1.735 0 00-.432-3.443 8.418 8.418 0 01-2.1.026 5.746 5.746 0 01-.68-.13 1.721 1.721 0 00-2.107 1.243 1.739 1.739 0 001.239 2.115z" fill-rule="evenodd"/></svg><svg viewBox="0 0 512 452" id="icon-shipping-truck" xmlns="http://www.w3.org/2000/svg"><path d="M505.317 184.211l-74.261-81.872c-5.975-5.969-13.657-9.381-21.339-9.381h-78.53a23.847 23.847 0 00-23.9 23.879V298.49H265.95l31.7-221.737h77.919c5.121 0 8.535-3.411 8.535-8.528s-3.414-8.528-8.535-8.528h-81.512l-40.545-48.611c-.853-.853-3.414-2.559-5.121-2.559L188.641 0a9.7 9.7 0 00-6.829 2.558L157.058 27.29l-22.193 14.5-47.8-7.675c-4.268-.852-8.535 1.706-9.39 5.117L53.988 102.34H42.68a9.389 9.389 0 00-8.535 5.117L0 192.74v5.117l25.608 110.868v71.638a20.763 20.763 0 0020.486 20.468h5.725a59.77 59.77 0 00118.3 0H350.57a59.77 59.77 0 00118.3 0h22.8c11.1 0 20.486-9.382 21.339-20.468V203.826c-.009-7.675-2.571-14.498-7.692-19.615zm-10.243 19.615v26.438H367.037v-85.283h77.675l46.947 51.17a6.418 6.418 0 011.613 1.559 7.831 7.831 0 01.592.945 11.28 11.28 0 011.21 5.171zM90.479 52.023l44.386 7.677c2.56 0 4.268 0 6.829-2.559L167.3 40.083a2.983 2.983 0 001.707-.853L191.2 17.056l52.067 7.676L272.291 59.7H239a10.186 10.186 0 00-1.272.08h-.013a9.692 9.692 0 00-1.165.222c-.073.018-.145.04-.218.06-.249.07-.493.151-.733.241a9.086 9.086 0 00-5.134 4.512l-12.8 32.408q-2.56 5.116-7.682 5.117H71.7zM24.9 230.234c.234.015.468.03.71.03h128.034c5.121 0 8.535-3.411 8.535-8.528s-3.414-8.528-8.535-8.528H25.608a9.239 9.239 0 00-4.467 1.072L17.072 197l3.818-9.381h90.076c5.121 0 8.535-3.411 8.535-8.528s-3.414-8.528-8.535-8.528H27.83L48.654 119.4h162.179c10.243 0 19.633-5.969 23.047-15.351l11.1-27.291h35l-31.589 221.733H40.972zm86.068 204.71a42.642 42.642 0 1142.676-42.644 42.246 42.246 0 01-42.679 42.644zm298.752 0A42.642 42.642 0 11452.4 392.3a42.247 42.247 0 01-42.683 42.644zm81.943-51.17h-22.8a59.3 59.3 0 00-59.147-51.17c-.138 0-.275.009-.413.01s-.294-.01-.441-.01a59.705 59.705 0 00-58.9 51.17H170.113a59.231 59.231 0 00-53.544-50.906c-.2-.019-.409-.029-.613-.046-.7-.056-1.4-.114-2.1-.147-.958-.046-1.92-.072-2.888-.072s-1.931.026-2.888.072c-.706.033-1.4.09-2.1.147-.2.017-.41.027-.613.046a59.231 59.231 0 00-53.543 50.906h-5.731a3.67 3.67 0 01-3.414-3.411v-64.815h281.68V117.69a6.73 6.73 0 016.829-6.823h78.529a10.964 10.964 0 018.535 3.411l12.234 13.645h-66.009a14.952 14.952 0 00-14.511 14.5v90.4a14.952 14.952 0 0014.511 14.5h130.6v42.642H452.4c-5.122 0-8.536 3.411-8.536 8.528s3.414 8.528 8.536 8.528h42.679v73.344a3.67 3.67 0 01-3.419 3.409zm-380.7-8.528a17.057 17.057 0 1017.074 17.054 17.114 17.114 0 00-17.072-17.054zm298.752 0a17.057 17.057 0 1017.073 17.054 17.114 17.114 0 00-17.071-17.054z" fill-rule="evenodd"/></svg><svg viewBox="0 0 140.812 114.688" id="icon-truck" xmlns="http://www.w3.org/2000/svg"><path data-name="Forma 1" d="M1.561 1.534A5.015 5.015 0 015.227-.014h83.428a5.014 5.014 0 013.666 1.548 5.014 5.014 0 011.548 3.667v15.643h13.037a14.159 14.159 0 018.881 3.666l16.131 16.134a11.075 11.075 0 011.833 2.444 14.858 14.858 0 011.141 2.484 13.537 13.537 0 01.529 3.015q.162 1.915.2 2.812t0 3.1q-.04 2.2-.041 2.852v26.07a5.288 5.288 0 015.214 5.215 6.558 6.558 0 01-.325 2.158 3.093 3.093 0 01-1.1 1.509q-.774.57-1.344.936a4.493 4.493 0 01-1.915.489q-1.344.122-1.833.163t-2.077 0q-1.587-.047-1.831-.047h-5.214a20.863 20.863 0 01-20.857 20.857 20.862 20.862 0 01-20.856-20.857H52.155a20.1 20.1 0 01-6.11 14.746 20.09 20.09 0 01-14.746 6.111 20.093 20.093 0 01-14.746-6.111 20.091 20.091 0 01-6.11-14.746q-.245 0-1.833.041t-2.078 0c-.326-.026-.938-.081-1.833-.162a4.491 4.491 0 01-1.915-.489q-.57-.366-1.344-.936a3.088 3.088 0 01-1.1-1.509 6.51 6.51 0 01-.326-2.158V5.202a5.02 5.02 0 011.547-3.668zm95.407 99.643a10.229 10.229 0 10-3.098-7.333 10.02 10.02 0 003.097 7.333zm-3.1-49.047h31.288v-2.443a2.439 2.439 0 00-.733-1.793l-15.887-15.887a2.438 2.438 0 00-1.793-.733H93.87V52.13zm-69.9 49.047a10.23 10.23 0 0014.666 0 10.23 10.23 0 000-14.665 10.231 10.231 0 00-14.666 0 10.232 10.232 0 00-.001 14.665z" fill-rule="evenodd"/></svg></svg>